<?xml version="1.0" encoding="UTF-8" standalone="no"?>
<!-- Created with Inkscape (http://www.inkscape.org/) -->

<svg
   width="512"
   height="512"
   viewBox="0 0 512 512"
   version="1.1"
   id="svg1"
   xml:space="preserve"
   xmlns="http://www.w3.org/2000/svg"
   xmlns:svg="http://www.w3.org/2000/svg"><defs
     id="defs1"><linearGradient
       id="swatch30"><stop
         style="stop-color:#ffffff;stop-opacity:1;"
         offset="0"
         id="stop30" /></linearGradient><linearGradient
       id="swatch26"><stop
         style="stop-color:#ffffff;stop-opacity:1;"
         offset="0"
         id="stop26" /></linearGradient><linearGradient
       id="SVGID_11_"
       gradientUnits="userSpaceOnUse"
       x1="131.2283"
       y1="45.385601"
       x2="364.7327"
       y2="263.13199">
		<stop
   offset="0"
   style="stop-color:#19212C"
   id="stop428" />
		<stop
   offset="3.429548e-02"
   style="stop-color:#222A35"
   id="stop430" />
		<stop
   offset="9.022294e-02"
   style="stop-color:#3A424D"
   id="stop432" />
		<stop
   offset="0.1604"
   style="stop-color:#606A73"
   id="stop434" />
		<stop
   offset="0.2"
   style="stop-color:#79838C"
   id="stop436" />
		<stop
   offset="0.2416"
   style="stop-color:#828B94"
   id="stop438" />
		<stop
   offset="0.3093"
   style="stop-color:#9AA2A9"
   id="stop440" />
		<stop
   offset="0.3949"
   style="stop-color:#C2C8CB"
   id="stop442" />
		<stop
   offset="0.4941"
   style="stop-color:#F8FBFA"
   id="stop444" />
		<stop
   offset="0.5"
   style="stop-color:#FCFEFD"
   id="stop446" />
		<stop
   offset="0.5239"
   style="stop-color:#CED2D3"
   id="stop448" />
		<stop
   offset="0.5508"
   style="stop-color:#A3A7AB"
   id="stop450" />
		<stop
   offset="0.5791"
   style="stop-color:#7D8289"
   id="stop452" />
		<stop
   offset="0.6083"
   style="stop-color:#5E646C"
   id="stop454" />
		<stop
   offset="0.6387"
   style="stop-color:#464D57"
   id="stop456" />
		<stop
   offset="0.671"
   style="stop-color:#353D47"
   id="stop458" />
		<stop
   offset="0.7062"
   style="stop-color:#2B333E"
   id="stop460" />
		<stop
   offset="0.75"
   style="stop-color:#28303B"
   id="stop462" />
		<stop
   offset="0.8127"
   style="stop-color:#2B333E"
   id="stop464" />
		<stop
   offset="0.8577"
   style="stop-color:#343C47"
   id="stop466" />
		<stop
   offset="0.8972"
   style="stop-color:#434C56"
   id="stop468" />
		<stop
   offset="0.9335"
   style="stop-color:#59626C"
   id="stop470" />
		<stop
   offset="0.9673"
   style="stop-color:#747F87"
   id="stop472" />
		<stop
   offset="0.9993"
   style="stop-color:#96A1A9"
   id="stop474" />
		<stop
   offset="1"
   style="stop-color:#97A2AA"
   id="stop476" />
	</linearGradient><linearGradient
       id="SVGID_12_"
       gradientUnits="userSpaceOnUse"
       x1="248.09911"
       y1="65.251999"
       x2="248.09911"
       y2="242.6113">
		<stop
   offset="0"
   style="stop-color:#19212C"
   id="stop481" />
		<stop
   offset="0.1401"
   style="stop-color:#222A35"
   id="stop483" />
		<stop
   offset="0.3687"
   style="stop-color:#3A424D"
   id="stop485" />
		<stop
   offset="0.6571"
   style="stop-color:#606A73"
   id="stop487" />
		<stop
   offset="0.9914"
   style="stop-color:#96A0A9"
   id="stop489" />
		<stop
   offset="1"
   style="stop-color:#97A2AA"
   id="stop491" />
	</linearGradient><clipPath
       clipPathUnits="userSpaceOnUse"
       id="clipPath24906"><path
         d="M 0,0 H 612 V 792 H 0 Z"
         id="path24904" /></clipPath><clipPath
       clipPathUnits="userSpaceOnUse"
       id="clipPath24922"><path
         d="M 0,0 H 612 V 792 H 0 Z"
         id="path24920" /></clipPath><clipPath
       clipPathUnits="userSpaceOnUse"
       id="clipPath25030"><path
         d="M 0,0 H 612 V 792 H 0 Z"
         id="path25028" /></clipPath><clipPath
       clipPathUnits="userSpaceOnUse"
       id="clipPath25046"><path
         d="M 0,0 H 612 V 792 H 0 Z"
         id="path25044" /></clipPath><clipPath
       clipPathUnits="userSpaceOnUse"
       id="clipPath25152"><path
         d="M 0,0 H 612 V 792 H 0 Z"
         id="path25150" /></clipPath><clipPath
       clipPathUnits="userSpaceOnUse"
       id="clipPath25168"><path
         d="M 0,0 H 612 V 792 H 0 Z"
         id="path25166" /></clipPath><clipPath
       clipPathUnits="userSpaceOnUse"
       id="clipPath25278"><path
         d="M 0,0 H 612 V 792 H 0 Z"
         id="path25276" /></clipPath><clipPath
       clipPathUnits="userSpaceOnUse"
       id="clipPath25294"><path
         d="M 0,0 H 612 V 792 H 0 Z"
         id="path25292" /></clipPath><clipPath
       clipPathUnits="userSpaceOnUse"
       id="clipPath25400"><path
         d="M 0,0 H 612 V 792 H 0 Z"
         id="path25398" /></clipPath><clipPath
       clipPathUnits="userSpaceOnUse"
       id="clipPath25416"><path
         d="M 0,0 H 612 V 792 H 0 Z"
         id="path25414" /></clipPath><clipPath
       clipPathUnits="userSpaceOnUse"
       id="clipPath25524"><path
         d="M 0,0 H 612 V 792 H 0 Z"
         id="path25522" /></clipPath><clipPath
       clipPathUnits="userSpaceOnUse"
       id="clipPath25540"><path
         d="M 0,0 H 612 V 792 H 0 Z"
         id="path25538" /></clipPath><clipPath
       clipPathUnits="userSpaceOnUse"
       id="clipPath25650"><path
         d="M 0,0 H 612 V 792 H 0 Z"
         id="path25648" /></clipPath><clipPath
       clipPathUnits="userSpaceOnUse"
       id="clipPath25666"><path
         d="M 0,0 H 612 V 792 H 0 Z"
         id="path25664" /></clipPath><clipPath
       clipPathUnits="userSpaceOnUse"
       id="clipPath25770"><path
         d="M 0,0 H 612 V 792 H 0 Z"
         id="path25768" /></clipPath><clipPath
       clipPathUnits="userSpaceOnUse"
       id="clipPath25786"><path
         d="M 0,0 H 612 V 792 H 0 Z"
         id="path25784" /></clipPath></defs><g
     id="layer1"><g
       id="g1"
       transform="matrix(3.7795276,0,0,3.7795276,-3626.8134,-275.18457)"><g
         id="layer1-7"
         style="display:inline"
         transform="matrix(1.9383594,0,0,1.9383594,818.14365,-76.155141)"><g
           id="g506"
           style="display:inline"
           transform="matrix(0.26458333,0,0,0.26458333,42.314653,70.995648)">
	<linearGradient
   id="linearGradient1263"
   gradientUnits="userSpaceOnUse"
   x1="131.2283"
   y1="45.385601"
   x2="364.7327"
   y2="263.13199">
		<stop
   offset="0"
   style="stop-color:#19212C"
   id="stop1213" />
		<stop
   offset="3.429548e-02"
   style="stop-color:#222A35"
   id="stop1215" />
		<stop
   offset="9.022294e-02"
   style="stop-color:#3A424D"
   id="stop1217" />
		<stop
   offset="0.1604"
   style="stop-color:#606A73"
   id="stop1219" />
		<stop
   offset="0.2"
   style="stop-color:#79838C"
   id="stop1221" />
		<stop
   offset="0.2416"
   style="stop-color:#828B94"
   id="stop1223" />
		<stop
   offset="0.3093"
   style="stop-color:#9AA2A9"
   id="stop1225" />
		<stop
   offset="0.3949"
   style="stop-color:#C2C8CB"
   id="stop1227" />
		<stop
   offset="0.4941"
   style="stop-color:#F8FBFA"
   id="stop1229" />
		<stop
   offset="0.5"
   style="stop-color:#FCFEFD"
   id="stop1231" />
		<stop
   offset="0.5239"
   style="stop-color:#CED2D3"
   id="stop1233" />
		<stop
   offset="0.5508"
   style="stop-color:#A3A7AB"
   id="stop1235" />
		<stop
   offset="0.5791"
   style="stop-color:#7D8289"
   id="stop1237" />
		<stop
   offset="0.6083"
   style="stop-color:#5E646C"
   id="stop1239" />
		<stop
   offset="0.6387"
   style="stop-color:#464D57"
   id="stop1241" />
		<stop
   offset="0.671"
   style="stop-color:#353D47"
   id="stop1243" />
		<stop
   offset="0.7062"
   style="stop-color:#2B333E"
   id="stop1245" />
		<stop
   offset="0.75"
   style="stop-color:#28303B"
   id="stop1247" />
		<stop
   offset="0.8127"
   style="stop-color:#2B333E"
   id="stop1249" />
		<stop
   offset="0.8577"
   style="stop-color:#343C47"
   id="stop1251" />
		<stop
   offset="0.8972"
   style="stop-color:#434C56"
   id="stop1253" />
		<stop
   offset="0.9335"
   style="stop-color:#59626C"
   id="stop1255" />
		<stop
   offset="0.9673"
   style="stop-color:#747F87"
   id="stop1257" />
		<stop
   offset="0.9993"
   style="stop-color:#96A1A9"
   id="stop1259" />
		<stop
   offset="1"
   style="stop-color:#97A2AA"
   id="stop1261" />
	</linearGradient>
	<path
   class="st14"
   d="m 380,221.2 c 0,35.8 -29.2,65 -65,65 H 180.9 c -35.8,0 -65,-29.2 -65,-65 v -134 c 0,-35.8 29.3,-65 65,-65 H 315 c 35.8,0 65,29.2 65,65 z"
   id="path479"
   style="display:inline;fill:url(#SVGID_11_)" />
	<linearGradient
   id="linearGradient1278"
   gradientUnits="userSpaceOnUse"
   x1="248.09911"
   y1="65.251999"
   x2="248.09911"
   y2="242.6113">
		<stop
   offset="0"
   style="stop-color:#19212C"
   id="stop1266" />
		<stop
   offset="0.1401"
   style="stop-color:#222A35"
   id="stop1268" />
		<stop
   offset="0.3687"
   style="stop-color:#3A424D"
   id="stop1270" />
		<stop
   offset="0.6571"
   style="stop-color:#606A73"
   id="stop1272" />
		<stop
   offset="0.9914"
   style="stop-color:#96A0A9"
   id="stop1274" />
		<stop
   offset="1"
   style="stop-color:#97A2AA"
   id="stop1276" />
	</linearGradient>
	<path
   class="st15"
   d="m 342.2,217.6 c 0,13.8 -11.2,25 -25,25 H 179 c -13.8,0 -25,-11.2 -25,-25 V 90.3 c 0,-13.8 11.2,-25 25,-25 h 138.2 c 13.8,0 25,11.2 25,25 z"
   id="path494"
   style="display:inline;fill:url(#SVGID_12_)" />
	<path
   class="st2"
   d="M 317.2,59.3 H 179 c -13.8,0 -25,11.2 -25,25 v 6 c 0,-13.8 11.2,-25 25,-25 h 138.2 c 13.8,0 25,11.2 25,25 v -6 c 0,-13.8 -11.3,-25 -25,-25 z"
   id="path496"
   style="display:inline;fill:#0d0b0b" />
	<path
   class="st3"
   d="M 317.2,242.6 H 179 c -13.8,0 -25,-11.2 -25,-25 v 6 c 0,13.8 11.2,25 25,25 h 138.2 c 13.8,0 25,-11.2 25,-25 v -6 c 0,13.8 -11.3,25 -25,25 z"
   id="path498"
   style="display:inline;fill:#dbe4e7" />
	
<g
   transform="matrix(0.05331284,0,0,-0.05653344,-622.67706,882.32313)"
   id="g6812"
   style="display:inline"><path
     id="path6814"
     style="fill:#fddd10;fill-opacity:1;fill-rule:nonzero;stroke:none"
     d="m 15490,13654.5 -1,11.6 c 0,8.5 1.7,17.5 5.1,27.2 6.2,16.7 18.7,35.5 37.2,54.4 28,28.5 69.7,56.7 121.1,80.5 51.4,23.8 112.5,43.4 178.9,55.5 48.4,8.8 95.5,12.9 139.4,12.9 75,0.2 140.6,-12.3 186.5,-32.9 23,-10.3 40.8,-22.5 53,-35 12.3,-12.8 18.9,-25.4 21.4,-39 3.3,-17.9 20.5,-29.7 38.4,-26.6 18,3.4 30,20.6 26.7,38.6 -5,27.9 -19.4,52.8 -38.9,73 -14.8,15.2 -32.6,28.1 -52.7,39.1 -30.2,16.4 -65.7,28.4 -105.1,36.6 -39.6,8.2 -83.1,12.4 -129.3,12.4 -48,0 -99,-4.5 -151.3,-14.1 -109.3,-20 -205.5,-58.1 -276.4,-106.2 -35.3,-24.2 -64.7,-50.9 -85.8,-80.2 -10.6,-14.7 -19.1,-30.1 -25.1,-46.2 -5.9,-16.1 -9.2,-33 -9.2,-50 0,-7.8 0.7,-15.7 2,-23.5 3.4,-17.9 20.6,-29.8 38.5,-26.6 18.1,3.3 29.9,20.6 26.6,38.5" /></g><path
   id="path6816"
   style="display:inline;fill:#1b1a2d;fill-opacity:1;fill-rule:nonzero;stroke:none;stroke-width:0.0538869"
   d="m 206.29137,124.72439 c -2.5066,1.14312 -5.66731,-0.69364 -7.05928,-4.11186 -1.39196,-3.42377 -0.48666,-7.11946 2.02516,-8.27367 2.50658,-1.13756 5.66729,0.69918 7.05926,4.11742 1.39197,3.41822 0.48666,7.11946 -2.02514,8.26811 z m 13.27076,-6.58674 c -3.72063,-9.13933 -12.17709,-14.07246 -18.88574,-11.00382 -6.70865,3.07418 -9.13151,12.97374 -5.41088,22.12415 3.72587,9.13934 12.1771,14.06137 18.88574,10.99273 6.70343,-3.06864 9.13151,-12.96818 5.41088,-22.11306" /><path
   id="path6818"
   style="display:inline;fill:#46487e;fill-opacity:1;fill-rule:nonzero;stroke:none;stroke-width:0.0538869"
   d="m 198.60937,111.55089 c 6.70866,-3.07419 15.16512,1.84784 18.88575,10.99827 1.96236,4.82214 2.21355,9.85516 1.02566,13.98367 3.18688,-4.5225 3.78342,-11.66416 1.04135,-18.39518 -3.72063,-9.13933 -12.17709,-14.07246 -18.88574,-11.00382 -3.17117,1.45386 -5.37949,4.42816 -6.44176,8.1294 1.14078,-1.61479 2.60601,-2.90772 4.37474,-3.71234" /><path
   id="path6820"
   style="display:inline;fill:#46487e;fill-opacity:1;fill-rule:nonzero;stroke:none;stroke-width:0.0538869"
   d="m 197.16507,125.02406 c 1.39721,3.41267 4.55268,5.25496 7.05927,4.10631 1.64837,-0.75469 2.59554,-2.60252 2.66357,-4.76111 l -0.59654,0.35513 c -2.5066,1.14312 -5.66731,-0.69364 -7.05928,-4.11186 -0.4762,-1.1764 -0.67505,-2.38055 -0.63842,-3.50701 -2.04085,1.42611 -2.69497,4.7833 -1.4286,7.91854" /><g
   transform="matrix(0.05475086,0,0,-0.05805832,-622.67706,882.32313)"
   id="g6822"
   style="display:inline"><path
     id="path6824"
     style="fill:#7b738d;fill-opacity:1;fill-rule:nonzero;stroke:none"
     d="m 16300,12527.8 c 0,-330.6 -268,-598.7 -598.7,-598.7 -330.6,0 -598.7,268.1 -598.7,598.7 0,330.6 268.1,598.7 598.7,598.7 330.7,0 598.7,-268.1 598.7,-598.7" /></g><g
   transform="matrix(0.05458916,0,0,-0.05788685,-622.67706,882.32313)"
   id="g6826"
   style="display:inline"><path
     id="path6828"
     style="fill:#9f96b9;fill-opacity:1;fill-rule:nonzero;stroke:none"
     d="m 15408.5,12404.5 c 12,7.7 24.3,14.4 37.2,20.1 176.9,135.5 379.2,241.8 589.8,309.3 86.9,27.9 175,51.1 264.5,66.5 -21.1,49.3 -48.5,95.3 -81.4,136.9 -327.6,-59 -628.9,-240.3 -810.1,-532.8" /></g><g
   transform="matrix(0.05403552,0,0,-0.05729977,-622.67706,882.32313)"
   id="g6830"
   style="display:inline"><path
     id="path6832"
     style="fill:#9f96b9;fill-opacity:1;fill-rule:nonzero;stroke:none"
     d="m 15490,12472.9 c 11.6,9.6 23.6,19.7 35.9,29.5 -37.3,-3.5 -77.6,35.2 -52.2,76.8 187.1,305.4 490.7,501.5 826.3,578.2 -105.6,89.1 -241.9,142.9 -390.9,142.9 -334.9,0 -606.6,-271.7 -606.6,-606.7 0,-112.6 30.8,-218.1 84.5,-308.3 33.5,30 68.5,58.6 103,87.6" /></g><g
   transform="matrix(0.05326889,0,0,-0.05648683,-622.67706,882.32313)"
   id="g6834"
   style="display:inline"><path
     id="path6836"
     style="fill:#413c58;fill-opacity:1;fill-rule:nonzero;stroke:none"
     d="m 16230.2,12901 c 69.8,-299.7 -47.6,-580.8 -253.8,-628.8 -206.3,-48.1 -430.1,155.8 -499.9,455.5 -69.9,299.6 40.8,581.5 246.9,629.6 206.1,48.1 436.9,-156.7 506.8,-456.3" /></g><g
   transform="matrix(0.05302922,0,0,-0.05623267,-622.67706,882.32313)"
   id="g6838"
   style="display:inline"><path
     id="path6840"
     style="fill:#2f2a3d;fill-opacity:1;fill-rule:nonzero;stroke:none"
     d="m 16242.7,12947.5 c 57.3,-246.2 -36.4,-478.4 -209.3,-518.8 -173,-40.3 -359.8,126.7 -417.2,372.7 -57.4,246.3 36.4,478.5 209.3,518.9 173,40.3 359.8,-126.6 417.2,-372.8" /></g><g
   transform="matrix(0.05280943,0,0,-0.05599962,-622.67706,882.32313)"
   id="g6842"
   style="display:inline"><path
     id="path6844"
     style="fill:#1f1a26;fill-opacity:1;fill-rule:nonzero;stroke:none"
     d="m 16252.9,12988 c 47.1,-202.1 -29.8,-392.9 -171.8,-426.1 -142.1,-33.1 -295.5,104 -342.6,306.1 -47.1,202.2 29.8,393 171.8,426.2 142.1,33.1 295.6,-104 342.6,-306.2" /></g><g
   transform="matrix(0.05330918,0,0,-0.05652955,-622.67706,882.32313)"
   id="g6846"
   style="display:inline"><path
     id="path6848"
     style="fill:#fddd10;fill-opacity:1;fill-rule:nonzero;stroke:none"
     d="m 16232.8,13790.7 1,-11.5 c 0,-8.4 -1.6,-17.4 -5.2,-27.1 -6.1,-16.8 -18.6,-35.6 -37.3,-54.5 -27.8,-28.4 -69.6,-56.8 -121,-80.6 -51.3,-23.8 -112.4,-43.3 -178.9,-55.3 -89.9,-16.4 -173,-27.2 -239.3,-27.2 -23.9,0 -45.7,1.4 -64.6,4.3 -14,2.2 -26.5,5.1 -37.1,8.7 -15.8,5.4 -26.9,12.3 -34.2,19.7 l -8.9,11.8 c -2.1,4.3 -3.8,9.2 -5,15.1 -3.3,18 -20.5,29.8 -38.4,26.6 -17.9,-3.3 -29.9,-20.4 -26.6,-38.5 3.8,-21.3 13.1,-40.7 26.8,-56.1 10.2,-11.7 22.5,-21.1 36.1,-28.5 20.4,-11.2 43.6,-18.3 68.9,-22.8 25.4,-4.5 53.2,-6.5 83,-6.5 73.2,0.1 159.2,11.5 251.2,28.2 109.4,20.1 205.6,58.1 276.5,106.3 35.4,24.1 64.6,50.8 85.8,80.2 10.5,14.8 19.1,30.2 25.1,46.1 6,16.3 9.3,33 9.3,50.1 0,7.8 -0.8,15.7 -2.2,23.5 -3.2,17.9 -20.5,29.8 -38.3,26.5 -18.1,-3.2 -30,-20.4 -26.7,-38.5" /></g><g
   transform="matrix(0.0573956,0,0,-0.06086282,-622.67706,882.32313)"
   id="g6850"
   style="display:inline"><path
     id="path6852"
     style="fill:#7b738d;fill-opacity:1;fill-rule:nonzero;stroke:none"
     d="m 15549.8,11977.3 -470.7,-139.6 v -14.8 l 685.3,-374 535.6,128.2 -750.2,400.2" /></g><g
   transform="matrix(0.05573832,0,0,-0.05910542,-622.67706,882.32313)"
   id="g6854"
   style="display:inline"><path
     id="path6856"
     style="fill:#9f96b9;fill-opacity:1;fill-rule:nonzero;stroke:none"
     d="m 16065.5,12076.1 c 77.9,35.3 156,69.9 234.5,103.7 l -287.9,153.6 -484.7,-143.8 v -15.2 l 333.4,-191.2 c 68,31.3 136.4,62 204.7,92.9" /></g><g
   transform="matrix(0.0573956,0,0,-0.06086282,-622.67706,882.32313)"
   id="g6858"
   style="display:inline"><path
     id="path6860"
     style="fill:#413c58;fill-opacity:1;fill-rule:nonzero;stroke:none"
     d="m 15765.2,11449.4 -686.1,373.5 -75.5,-297.4 681,-353.8 1.5,2.9 -0.8,-2.9 534.6,126.8 80.1,278.6 -534.8,-127.7" /></g><g
   transform="matrix(0.05713029,0,0,-0.06058148,-622.67706,882.32313)"
   id="g6862"
   style="display:inline"><path
     id="path6864"
     style="fill:#0b090f;fill-opacity:1;fill-rule:nonzero;stroke:none"
     d="m 16258,11395.4 -367.9,-95.3 40.7,183.9 369.2,83.1 -42,-171.7" /></g></g></g><path
         style="fill:#ee0000;fill-opacity:0.38144329;stroke:#efefef;stroke-width:0.26458333;stroke-linecap:square;stroke-miterlimit:0;stroke-opacity:0.23402062;paint-order:fill markers stroke;stroke-dasharray:none"
         d="m 990.4981,170.95807 c -2.95927,-0.94999 -5.20064,-3.80004 -5.44859,-6.92819 -0.19447,-2.45379 -0.3546,-2.11649 6.12962,-12.91286 2.12965,-3.54597 6.69245,-11.11328 8.90077,-14.76156 1.3916,-2.29914 2.8431,-4.70933 3.2254,-5.35597 0.3823,-0.64662 1.4817,-2.46896 2.4429,-4.04963 0.9615,-1.58065 2.2729,-3.7557 2.9147,-4.83342 0.6416,-1.07773 2.2364,-3.72304 3.5439,-5.87849 1.3076,-2.15546 3.5629,-5.88222 5.0117,-8.28172 3.768,-6.24024 5.2005,-7.37563 9.3052,-7.37563 2.5482,0 3.9346,0.50955 5.6456,2.07484 1.0603,0.97011 1.6361,1.86381 7.825,12.14554 1.7732,2.94578 4.5382,7.531 6.1442,10.18939 1.6061,2.65838 4.3698,7.24362 6.1415,10.1894 1.7719,2.94578 4.4989,7.47222 6.0603,10.05876 1.5613,2.58653 3.115,5.17308 3.4523,5.74786 0.3375,0.57479 1.4825,2.45591 2.5444,4.18026 3.0169,4.89855 3.7239,6.4858 3.7209,8.35317 0,3.27674 -2.3873,6.44695 -5.5988,7.45149 -1.6443,0.51436 -2.3412,0.52421 -36.027,0.50982 -33.29563,-0.0144 -34.39883,-0.0303 -35.934,-0.52306 z m 72.3569,-3.20067 c 0.7869,-0.51777 1.2989,-1.13315 1.7388,-2.09012 1.0978,-2.38792 0.8831,-3.10056 -2.7314,-9.06366 -1.176,-1.9399 -2.4393,-4.02391 -2.8074,-4.63113 -0.3682,-0.60722 -1.321,-2.19441 -2.1177,-3.5271 -0.7966,-1.33268 -2.5856,-4.30418 -3.9755,-6.60332 -1.3901,-2.29916 -3.8028,-6.29653 -5.3617,-8.88307 -1.5589,-2.58653 -3.1366,-5.19961 -3.5061,-5.80683 -0.3695,-0.60722 -1.3236,-2.19441 -2.1202,-3.5271 -0.7965,-1.33268 -2.5478,-4.2454 -3.8917,-6.47269 -1.3437,-2.22731 -3.4659,-5.75441 -4.7158,-7.83801 -1.2499,-2.08358 -2.517,-4.06839 -2.8161,-4.41067 -1.3448,-1.53937 -4.4201,-2.05857 -6.5073,-1.09861 -1.4548,0.66902 -1.3741,0.55338 -7.3202,10.47336 -0.3876,0.64662 -1.8397,3.05681 -3.2268,5.35595 -1.3871,2.29916 -3.1525,5.2384 -3.9232,6.53167 -0.7706,1.29326 -1.8708,3.11561 -2.4448,4.04964 -0.5741,0.93403 -2.1741,3.57935 -3.556,5.87849 -1.3817,2.29914 -3.64772,6.06138 -5.03558,8.36052 -1.38786,2.29916 -2.83886,4.70933 -3.22447,5.35597 -0.38561,0.64664 -1.48754,2.46896 -2.44881,4.04963 -5.6527,9.29428 -5.64511,9.27372 -4.32861,11.9061 0.56267,1.12486 0.97661,1.56628 1.99943,2.13242 l 1.29007,0.71394 34.95787,-0.0607 34.9578,-0.0607 z"
         id="path6" /><path
         style="fill:#ee0000;fill-opacity:0.38144329;stroke:#efefef;stroke-width:0.26458333;stroke-linecap:square;stroke-miterlimit:0;stroke-opacity:0.75360823;paint-order:fill markers stroke;stroke-dasharray:none"
         d="m 1024.285,149.90478 c -1.019,-0.22759 -2.8887,-2.13661 -3.1854,-3.25248 -0.1785,-0.67139 -0.2481,-4.54767 -0.1987,-11.0676 0.085,-11.26678 -0.046,-10.5054 2.116,-12.27744 0.9391,-0.76973 1.0673,-0.79893 3.5068,-0.79893 2.4394,0 2.5676,0.0292 3.5067,0.79893 2.1783,1.78534 2.0401,0.91073 2.0401,12.91757 0,11.99572 0.1345,11.13511 -2.0176,12.89916 -0.8643,0.70836 -1.1489,0.78634 -3.0792,0.84338 -1.1698,0.0346 -2.3798,0.006 -2.6887,-0.0626 z m 3.645,-2.81527 c 0.4808,-0.20338 0.9994,-0.60714 1.1528,-0.89726 0.1851,-0.35022 0.2788,-3.73299 0.2788,-10.0663 v -9.53884 l -0.619,-0.7287 c -0.5535,-0.65172 -0.788,-0.7287 -2.2189,-0.7287 -1.4311,0 -1.6654,0.0769 -2.2191,0.7287 l -0.6188,0.7287 v 9.53884 c 0,6.32374 0.093,9.71632 0.2783,10.06545 0.3119,0.59039 1.6092,1.24213 2.5034,1.25767 0.3237,0.006 0.982,-0.15623 1.4625,-0.35956 z"
         id="path7" /><path
         style="fill:#ee0000;fill-opacity:0.38144329;stroke:#efefef;stroke-width:0.26458333;stroke-linecap:square;stroke-miterlimit:0;stroke-opacity:0.75360823;paint-order:fill markers stroke;stroke-dasharray:none"
         d="m 1025.0195,162.89126 c -2.0417,-0.52537 -3.9137,-3.00105 -3.9137,-5.1757 0,-1.3037 0.5511,-2.79157 1.3668,-3.6903 0.8556,-0.9427 2.9784,-1.85806 4.309,-1.85806 1.3306,0 3.4534,0.91536 4.3091,1.85806 2.2783,2.51011 1.629,6.46661 -1.369,8.343 -0.9242,0.57846 -3.4116,0.85511 -4.7022,0.523 z m 3.8516,-3.44134 c 1.3313,-1.44334 0.9258,-3.37465 -0.892,-4.24825 -2.7324,-1.31305 -5.3253,2.03835 -3.2868,4.24825 1.094,1.18617 3.0846,1.18617 4.1788,0 z"
         id="path8" /></g></g></svg>
