<?xml version="1.0" encoding="UTF-8" standalone="no"?>
<!-- Created with Inkscape (http://www.inkscape.org/) -->

<svg
   width="512"
   height="512"
   viewBox="0 0 512 512"
   version="1.1"
   id="svg1"
   xml:space="preserve"
   inkscape:version="1.4 (86a8ad7, 2024-10-11)"
   sodipodi:docname="Boton fuera de juego 512x512.svg"
   xmlns:inkscape="http://www.inkscape.org/namespaces/inkscape"
   xmlns:sodipodi="http://sodipodi.sourceforge.net/DTD/sodipodi-0.dtd"
   xmlns="http://www.w3.org/2000/svg"
   xmlns:svg="http://www.w3.org/2000/svg"><sodipodi:namedview
     id="namedview1"
     pagecolor="#ffffff"
     bordercolor="#666666"
     borderopacity="1.0"
     inkscape:showpageshadow="2"
     inkscape:pageopacity="0.0"
     inkscape:pagecheckerboard="0"
     inkscape:deskcolor="#d1d1d1"
     inkscape:document-units="px"
     inkscape:zoom="2.2949219"
     inkscape:cx="255.78213"
     inkscape:cy="256"
     inkscape:window-width="2560"
     inkscape:window-height="1377"
     inkscape:window-x="-8"
     inkscape:window-y="-8"
     inkscape:window-maximized="1"
     inkscape:current-layer="layer1" /><defs
     id="defs1"><linearGradient
       id="SVGID_11_"
       gradientUnits="userSpaceOnUse"
       x1="131.2283"
       y1="45.385601"
       x2="364.7327"
       y2="263.13199">
		<stop
   offset="0"
   style="stop-color:#19212C"
   id="stop428" />
		<stop
   offset="3.429548e-02"
   style="stop-color:#222A35"
   id="stop430" />
		<stop
   offset="9.022294e-02"
   style="stop-color:#3A424D"
   id="stop432" />
		<stop
   offset="0.1604"
   style="stop-color:#606A73"
   id="stop434" />
		<stop
   offset="0.2"
   style="stop-color:#79838C"
   id="stop436" />
		<stop
   offset="0.2416"
   style="stop-color:#828B94"
   id="stop438" />
		<stop
   offset="0.3093"
   style="stop-color:#9AA2A9"
   id="stop440" />
		<stop
   offset="0.3949"
   style="stop-color:#C2C8CB"
   id="stop442" />
		<stop
   offset="0.4941"
   style="stop-color:#F8FBFA"
   id="stop444" />
		<stop
   offset="0.5"
   style="stop-color:#FCFEFD"
   id="stop446" />
		<stop
   offset="0.5239"
   style="stop-color:#CED2D3"
   id="stop448" />
		<stop
   offset="0.5508"
   style="stop-color:#A3A7AB"
   id="stop450" />
		<stop
   offset="0.5791"
   style="stop-color:#7D8289"
   id="stop452" />
		<stop
   offset="0.6083"
   style="stop-color:#5E646C"
   id="stop454" />
		<stop
   offset="0.6387"
   style="stop-color:#464D57"
   id="stop456" />
		<stop
   offset="0.671"
   style="stop-color:#353D47"
   id="stop458" />
		<stop
   offset="0.7062"
   style="stop-color:#2B333E"
   id="stop460" />
		<stop
   offset="0.75"
   style="stop-color:#28303B"
   id="stop462" />
		<stop
   offset="0.8127"
   style="stop-color:#2B333E"
   id="stop464" />
		<stop
   offset="0.8577"
   style="stop-color:#343C47"
   id="stop466" />
		<stop
   offset="0.8972"
   style="stop-color:#434C56"
   id="stop468" />
		<stop
   offset="0.9335"
   style="stop-color:#59626C"
   id="stop470" />
		<stop
   offset="0.9673"
   style="stop-color:#747F87"
   id="stop472" />
		<stop
   offset="0.9993"
   style="stop-color:#96A1A9"
   id="stop474" />
		<stop
   offset="1"
   style="stop-color:#97A2AA"
   id="stop476" />
	</linearGradient><linearGradient
       id="SVGID_12_"
       gradientUnits="userSpaceOnUse"
       x1="248.09911"
       y1="65.251999"
       x2="248.09911"
       y2="242.6113">
		<stop
   offset="0"
   style="stop-color:#19212C"
   id="stop481" />
		<stop
   offset="0.1401"
   style="stop-color:#222A35"
   id="stop483" />
		<stop
   offset="0.3687"
   style="stop-color:#3A424D"
   id="stop485" />
		<stop
   offset="0.6571"
   style="stop-color:#606A73"
   id="stop487" />
		<stop
   offset="0.9914"
   style="stop-color:#96A0A9"
   id="stop489" />
		<stop
   offset="1"
   style="stop-color:#97A2AA"
   id="stop491" />
	</linearGradient><clipPath
       clipPathUnits="userSpaceOnUse"
       id="clipPath24906"><path
         d="M 0,0 H 612 V 792 H 0 Z"
         id="path24904" /></clipPath><clipPath
       clipPathUnits="userSpaceOnUse"
       id="clipPath24922"><path
         d="M 0,0 H 612 V 792 H 0 Z"
         id="path24920" /></clipPath><clipPath
       clipPathUnits="userSpaceOnUse"
       id="clipPath25030"><path
         d="M 0,0 H 612 V 792 H 0 Z"
         id="path25028" /></clipPath><clipPath
       clipPathUnits="userSpaceOnUse"
       id="clipPath25046"><path
         d="M 0,0 H 612 V 792 H 0 Z"
         id="path25044" /></clipPath><clipPath
       clipPathUnits="userSpaceOnUse"
       id="clipPath25152"><path
         d="M 0,0 H 612 V 792 H 0 Z"
         id="path25150" /></clipPath><clipPath
       clipPathUnits="userSpaceOnUse"
       id="clipPath25168"><path
         d="M 0,0 H 612 V 792 H 0 Z"
         id="path25166" /></clipPath><clipPath
       clipPathUnits="userSpaceOnUse"
       id="clipPath25278"><path
         d="M 0,0 H 612 V 792 H 0 Z"
         id="path25276" /></clipPath><clipPath
       clipPathUnits="userSpaceOnUse"
       id="clipPath25294"><path
         d="M 0,0 H 612 V 792 H 0 Z"
         id="path25292" /></clipPath><clipPath
       clipPathUnits="userSpaceOnUse"
       id="clipPath25400"><path
         d="M 0,0 H 612 V 792 H 0 Z"
         id="path25398" /></clipPath><clipPath
       clipPathUnits="userSpaceOnUse"
       id="clipPath25416"><path
         d="M 0,0 H 612 V 792 H 0 Z"
         id="path25414" /></clipPath><clipPath
       clipPathUnits="userSpaceOnUse"
       id="clipPath25524"><path
         d="M 0,0 H 612 V 792 H 0 Z"
         id="path25522" /></clipPath><clipPath
       clipPathUnits="userSpaceOnUse"
       id="clipPath25540"><path
         d="M 0,0 H 612 V 792 H 0 Z"
         id="path25538" /></clipPath><clipPath
       clipPathUnits="userSpaceOnUse"
       id="clipPath25650"><path
         d="M 0,0 H 612 V 792 H 0 Z"
         id="path25648" /></clipPath><clipPath
       clipPathUnits="userSpaceOnUse"
       id="clipPath25666"><path
         d="M 0,0 H 612 V 792 H 0 Z"
         id="path25664" /></clipPath><clipPath
       clipPathUnits="userSpaceOnUse"
       id="clipPath25770"><path
         d="M 0,0 H 612 V 792 H 0 Z"
         id="path25768" /></clipPath><clipPath
       clipPathUnits="userSpaceOnUse"
       id="clipPath25786"><path
         d="M 0,0 H 612 V 792 H 0 Z"
         id="path25784" /></clipPath></defs><g
     inkscape:label="Capa 1"
     inkscape:groupmode="layer"
     id="layer1"><g
       inkscape:label="Capa 1"
       id="layer1-4"
       style="display:inline"
       transform="matrix(7.335354,0,0,7.335354,-535.61739,-564.05148)"><g
         id="g506"
         style="display:inline"
         transform="matrix(0.26458333,0,0,0.26458333,42.314653,70.995648)">
	<linearGradient
   id="linearGradient1263"
   gradientUnits="userSpaceOnUse"
   x1="131.2283"
   y1="45.385601"
   x2="364.7327"
   y2="263.13199">
		<stop
   offset="0"
   style="stop-color:#19212C"
   id="stop1213" />
		<stop
   offset="3.429548e-02"
   style="stop-color:#222A35"
   id="stop1215" />
		<stop
   offset="9.022294e-02"
   style="stop-color:#3A424D"
   id="stop1217" />
		<stop
   offset="0.1604"
   style="stop-color:#606A73"
   id="stop1219" />
		<stop
   offset="0.2"
   style="stop-color:#79838C"
   id="stop1221" />
		<stop
   offset="0.2416"
   style="stop-color:#828B94"
   id="stop1223" />
		<stop
   offset="0.3093"
   style="stop-color:#9AA2A9"
   id="stop1225" />
		<stop
   offset="0.3949"
   style="stop-color:#C2C8CB"
   id="stop1227" />
		<stop
   offset="0.4941"
   style="stop-color:#F8FBFA"
   id="stop1229" />
		<stop
   offset="0.5"
   style="stop-color:#FCFEFD"
   id="stop1231" />
		<stop
   offset="0.5239"
   style="stop-color:#CED2D3"
   id="stop1233" />
		<stop
   offset="0.5508"
   style="stop-color:#A3A7AB"
   id="stop1235" />
		<stop
   offset="0.5791"
   style="stop-color:#7D8289"
   id="stop1237" />
		<stop
   offset="0.6083"
   style="stop-color:#5E646C"
   id="stop1239" />
		<stop
   offset="0.6387"
   style="stop-color:#464D57"
   id="stop1241" />
		<stop
   offset="0.671"
   style="stop-color:#353D47"
   id="stop1243" />
		<stop
   offset="0.7062"
   style="stop-color:#2B333E"
   id="stop1245" />
		<stop
   offset="0.75"
   style="stop-color:#28303B"
   id="stop1247" />
		<stop
   offset="0.8127"
   style="stop-color:#2B333E"
   id="stop1249" />
		<stop
   offset="0.8577"
   style="stop-color:#343C47"
   id="stop1251" />
		<stop
   offset="0.8972"
   style="stop-color:#434C56"
   id="stop1253" />
		<stop
   offset="0.9335"
   style="stop-color:#59626C"
   id="stop1255" />
		<stop
   offset="0.9673"
   style="stop-color:#747F87"
   id="stop1257" />
		<stop
   offset="0.9993"
   style="stop-color:#96A1A9"
   id="stop1259" />
		<stop
   offset="1"
   style="stop-color:#97A2AA"
   id="stop1261" />
	</linearGradient>
	<path
   class="st14"
   d="m 380,221.2 c 0,35.8 -29.2,65 -65,65 H 180.9 c -35.8,0 -65,-29.2 -65,-65 v -134 c 0,-35.8 29.3,-65 65,-65 H 315 c 35.8,0 65,29.2 65,65 z"
   id="path479"
   style="display:inline;fill:url(#SVGID_11_)" />
	<linearGradient
   id="linearGradient1278"
   gradientUnits="userSpaceOnUse"
   x1="248.09911"
   y1="65.251999"
   x2="248.09911"
   y2="242.6113">
		<stop
   offset="0"
   style="stop-color:#19212C"
   id="stop1266" />
		<stop
   offset="0.1401"
   style="stop-color:#222A35"
   id="stop1268" />
		<stop
   offset="0.3687"
   style="stop-color:#3A424D"
   id="stop1270" />
		<stop
   offset="0.6571"
   style="stop-color:#606A73"
   id="stop1272" />
		<stop
   offset="0.9914"
   style="stop-color:#96A0A9"
   id="stop1274" />
		<stop
   offset="1"
   style="stop-color:#97A2AA"
   id="stop1276" />
	</linearGradient>
	<path
   class="st15"
   d="m 342.2,217.6 c 0,13.8 -11.2,25 -25,25 H 179 c -13.8,0 -25,-11.2 -25,-25 V 90.3 c 0,-13.8 11.2,-25 25,-25 h 138.2 c 13.8,0 25,11.2 25,25 z"
   id="path494"
   style="display:inline;fill:url(#SVGID_12_)" />
	<path
   class="st2"
   d="M 317.2,59.3 H 179 c -13.8,0 -25,11.2 -25,25 v 6 c 0,-13.8 11.2,-25 25,-25 h 138.2 c 13.8,0 25,11.2 25,25 v -6 c 0,-13.8 -11.3,-25 -25,-25 z"
   id="path496"
   style="display:inline;fill:#0d0b0b" />
	<path
   class="st3"
   d="M 317.2,242.6 H 179 c -13.8,0 -25,-11.2 -25,-25 v 6 c 0,13.8 11.2,25 25,25 h 138.2 c 13.8,0 25,-11.2 25,-25 v -6 c 0,13.8 -11.3,25 -25,25 z"
   id="path498"
   style="display:inline;fill:#dbe4e7" />
	
</g><g
         transform="matrix(0.01817371,0.00224198,0.00267146,-0.02008253,-229.31002,297.74824)"
         id="g6866"
         style="display:inline"><path
           id="path6868"
           style="fill:#cce310;fill-opacity:1;fill-rule:nonzero;stroke:none"
           d="m 16300,12013.7 h -29.8 v -1204.3 h 29.8 v 1204.3" /></g><g
         transform="matrix(0.01824867,0.00225123,0.00268247,-0.02016537,-229.31002,297.74824)"
         id="g6870"
         style="display:inline"><path
           id="path6872"
           style="fill:#2f3132;fill-opacity:1;fill-rule:nonzero;stroke:none"
           d="m 16284.8,10153.6 v 546.3 c 0,12.1 -19.7,22.4 -47.1,26.2 v 66.9 c 0,5.1 -10.6,9.3 -23.5,9.3 -13.1,0 -23.6,-4.2 -23.6,-9.3 v -66.9 c -27.5,-3.8 -47.2,-14.1 -47.2,-26.2 v -546.3 c -9.5,-5.5 -15.2,-12.1 -15.2,-19.2 0,-18.7 38.5,-33.8 86,-33.8 47.4,0 85.8,15.1 85.8,33.8 0,7.1 -5.6,13.7 -15.2,19.2" /></g><g
         transform="matrix(0.0181859,0.00224348,0.00267325,-0.020096,-229.31002,297.74824)"
         id="g6874"
         style="display:inline"><path
           id="path6876"
           style="fill:#161514;fill-opacity:1;fill-rule:nonzero;stroke:none"
           d="m 16300,10762.1 -6.1,1.1 v 67.1 c 0,4.6 -8.6,8.4 -19.7,9.2 v -703.9 c 9,0.2 17.7,0.9 25.8,2 v 624.5" /></g><g
         transform="matrix(0.01824867,0.00225123,0.00268247,-0.02016537,-229.31002,297.74824)"
         id="g6878"
         style="display:inline"><path
           id="path6880"
           style="fill:#161514;fill-opacity:1;fill-rule:nonzero;stroke:none"
           d="m 16284.8,10153.6 v 546.3 c 0,8.1 -8.8,15.3 -23,20.5 v -614.1 c 23,6.1 38.2,16.4 38.2,28.1 0,7.1 -5.6,13.7 -15.2,19.2"
           sodipodi:nodetypes="csccsc" /></g><g
         transform="matrix(0.01816838,0.00224132,0.00267067,-0.02007663,-229.31002,297.74824)"
         id="g6882"
         style="display:inline"><path
           id="path6884"
           style="fill:#5b6066;fill-opacity:1;fill-rule:nonzero;stroke:none"
           d="m 16227.9,10179.2 c 0,7.2 5.7,13.8 15.3,19.2 v 548.8 c 0,12.1 19.8,22.4 47.3,26.3 v 67.2 c 0,3 3.8,5.7 9.5,7.4 -3.9,1.1 -8.8,1.9 -14.2,1.9 -13.1,0 -23.6,-4.2 -23.6,-9.3 v -67.2 c -27.6,-3.9 -47.4,-14.2 -47.4,-26.3 v -548.8 c -9.6,-5.4 -15.3,-12 -15.3,-19.2 0,-18.8 38.6,-34 86.3,-34 4.9,0 9.6,0.3 14.2,0.5 -40.8,2.7 -72.1,16.6 -72.1,33.5"
           sodipodi:nodetypes="ccscscsscscsscc" /></g><g
         transform="matrix(0.01970977,0.00243148,0.00289724,-0.02177993,-229.31002,297.74824)"
         id="g6886"
         style="display:inline"><path
           id="path6888"
           style="fill:#e0e90a;fill-opacity:1;fill-rule:nonzero;stroke:none"
           d="m 16300,11019.5 c -424.3,-202.7 -848.4,242 -1272.6,39.3 v -1020.3 c 424.2,229 848.3,-189.54 1272.6,39.3 v 941.7"
           sodipodi:nodetypes="ccccc" /></g><g
         transform="matrix(0.01894045,0.00233657,0.00278415,-0.02092979,-229.31002,297.74824)"
         id="g6890"
         style="display:inline"><path
           id="path6892"
           style="fill:#f1511b;fill-opacity:1;fill-rule:nonzero;stroke:none"
           d="m 16300,11307.1 c -54.9,-39.9 -110,-80.3 -165,-123.9 -54.9,67.4 -110,132.9 -164.9,193.6 54.9,51.4 110,97.1 164.9,139.6 55,-68.6 110.1,-139.2 165,-209.3" /></g><g
         transform="matrix(0.01932381,0.00238386,0.00284051,-0.02135342,-229.31002,297.74824)"
         id="g6894"
         style="display:inline"><path
           id="path6896"
           style="fill:#f1511b;fill-opacity:1;fill-rule:nonzero;stroke:none"
           d="m 16300,11014.4 c -53.9,-48.2 -107.8,-91.8 -161.7,-133.5 -53.9,65 -107.8,133.2 -161.7,201.8 53.9,39.2 107.8,77.8 161.7,118.4 53.8,-66.1 107.8,-129.2 161.7,-186.7" /></g><g
         transform="matrix(0.01970719,0.00243115,0.00289687,-0.02177706,-229.31002,297.74824)"
         id="g6898"
         style="display:inline"><path
           id="path6900"
           style="fill:#f1511b;fill-opacity:1;fill-rule:nonzero;stroke:none"
           d="m 16300,10853.4 c -52.8,-76.2 -105.6,-143 -158.5,-202.8 -52.8,42.6 -105.7,93.4 -158.5,149.6 52.8,47.4 105.7,99.2 158.5,158 52.9,-43.9 105.7,-79.5 158.5,-104.8" /></g><g
         transform="matrix(0.01894045,0.00233657,0.00278415,-0.02092979,-229.31002,297.74824)"
         id="g6902"
         style="display:inline"><path
           id="path6904"
           style="fill:#f1511b;fill-opacity:1;fill-rule:nonzero;stroke:none"
           d="m 16300,10977.2 c -54.9,-41 -110,-82.6 -165,-127.3 -54.9,66.4 -110,130.8 -164.9,190.4 54.9,52.5 110,99.3 164.9,142.9 55,-67.5 110.1,-137 165,-206" /></g><g
         transform="matrix(0.01932381,0.00238386,0.00284051,-0.02135342,-229.31002,297.74824)"
         id="g6906"
         style="display:inline"><path
           id="path6908"
           style="fill:#f1511b;fill-opacity:1;fill-rule:nonzero;stroke:none"
           d="m 16300,10697.5 c -53.9,-49.2 -107.8,-94 -161.7,-136.8 -53.9,64 -107.8,131.1 -161.7,198.7 53.9,40.2 107.8,79.8 161.7,121.5 53.8,-65.1 107.8,-127 161.7,-183.4" /></g><g
         transform="matrix(0.01970719,0.00243115,0.00289687,-0.02177706,-229.31002,297.74824)"
         id="g6910"
         style="display:inline"><path
           id="path6912"
           style="fill:#f1511b;fill-opacity:1;fill-rule:nonzero;stroke:none"
           d="m 16300,10549 c -52.8,-77.3 -105.6,-145.2 -158.5,-206.1 -52.8,41.6 -105.7,91.4 -158.5,146.5 52.8,48.5 105.7,101.3 158.5,161.2 52.9,-42.8 105.7,-77.5 158.5,-101.6" /></g><g
         transform="matrix(0.0182275,0.00224862,0.00267937,-0.02014196,-229.31002,297.74824)"
         id="g6914"
         style="display:inline"><path
           id="path6916"
           style="fill:#abb216;fill-opacity:1;fill-rule:nonzero;stroke:none"
           d="m 16300,11123.7 c 0,85.3 0,170.6 0,255.9 -16,10.2 -32,19.6 -48.1,28.1 16.1,24.8 32.1,48.6 48.1,71.6 0,85.2 0,170.6 0,255.8 -16,10.5 -32,20.2 -48.1,29.2 16.1,24.4 32.1,47.8 48.1,70.5 0,48.3 0,96.5 0,144.7 -16.8,-6.2 -33.6,-13.3 -50.4,-21.3 0,-367.7 0,-735.5 0,-1103.3 16.8,9.1 33.6,17.3 50.4,24.5 0,48.2 0,96.4 0,144.6 -16,9.9 -32,19 -48.1,27.2 16.1,25.1 32.1,49.2 48.1,72.5" /></g><g
         transform="matrix(0.01855709,0.00228928,0.0027278,-0.02050617,-229.31002,297.74824)"
         id="g6918"
         style="display:inline"><path
           id="path6920"
           style="fill:#f1511b;fill-opacity:1;fill-rule:nonzero;stroke:none"
           d="m 16131.6,11434 c 56.2,67 112.2,125.3 168.4,177.8 -56.2,62 -112.2,119.3 -168.4,169.1 -40.4,-47.3 -80.7,-99 -121.1,-156.3 0,-32.6 0,-65.2 0,-97.9 40.4,-26.4 80.7,-57.5 121.1,-92.7" /></g><g
         transform="matrix(0.0182275,0.00224862,0.00267937,-0.02014196,-229.31002,297.74824)"
         id="g6922"
         style="display:inline"><path
           id="path6924"
           style="fill:#ab2315;fill-opacity:1;fill-rule:nonzero;stroke:none"
           d="m 16300,11735.1 c 0,33.3 0,66.5 0,99.7 -16,-22.7 -32,-46.1 -48.1,-70.5 16.1,-9 32.1,-18.7 48.1,-29.2" /></g><g
         transform="matrix(0.01855709,0.00228928,0.0027278,-0.02050617,-229.31002,297.74824)"
         id="g6926"
         style="display:inline"><path
           id="path6928"
           style="fill:#f1511b;fill-opacity:1;fill-rule:nonzero;stroke:none"
           d="m 16131.6,11434 c -40.4,-48.1 -80.7,-100.6 -121.1,-158.6 0,-32.7 0,-65.3 0,-97.9 40.4,-25.6 80.7,-56 121.1,-90.2 56.2,68 112.2,127.5 168.4,181.1 -56.2,60.9 -112.2,117 -168.4,165.6" /></g><g
         transform="matrix(0.0182275,0.00224862,0.00267937,-0.02014196,-229.31002,297.74824)"
         id="g6930"
         style="display:inline"><path
           id="path6932"
           style="fill:#ab2315;fill-opacity:1;fill-rule:nonzero;stroke:none"
           d="m 16300,11379.6 c 0,33.2 0,66.4 0,99.7 -16,-23 -32,-46.8 -48.1,-71.6 16.1,-8.5 32.1,-17.9 48.1,-28.1" /></g><g
         transform="matrix(0.01855709,0.00228928,0.0027278,-0.02050617,-229.31002,297.74824)"
         id="g6934"
         style="display:inline"><path
           id="path6936"
           style="fill:#f1511b;fill-opacity:1;fill-rule:nonzero;stroke:none"
           d="m 16010.5,10828.2 c 40.4,-24.7 80.7,-54.3 121.1,-87.8 56.2,69.2 112.2,129.8 168.4,184.5 -56.2,59.7 -112.2,114.8 -168.4,162.4 -40.4,-49 -80.7,-102.4 -121.1,-161.1 0,-32.7 0,-65.3 0,-98" /></g><g
         transform="matrix(0.0182275,0.00224862,0.00267937,-0.02014196,-229.31002,297.74824)"
         id="g6938"
         style="display:inline"><path
           id="path6940"
           style="fill:#ab2315;fill-opacity:1;fill-rule:nonzero;stroke:none"
           d="m 16251.9,11051.2 c 16.1,-8.2 32.1,-17.3 48.1,-27.2 0,33.3 0,66.5 0,99.7 -16,-23.3 -32,-47.4 -48.1,-72.5" /></g><g
         transform="matrix(0.01894045,0.00233657,0.00278415,-0.02092979,-229.31002,297.74824)"
         id="g6942"
         style="display:inline"><path
           id="path6944"
           style="fill:#f1511b;fill-opacity:1;fill-rule:nonzero;stroke:none"
           d="m 16300,10647.3 c -54.9,-42.2 -110,-84.8 -165,-130.5 -54.9,65.2 -110,128.4 -164.9,187 54.9,53.6 110,101.5 164.9,146.1 55,-66.3 110.1,-134.8 165,-202.6" /></g><g
         transform="matrix(0.01932381,0.00238386,0.00284051,-0.02135342,-229.31002,297.74824)"
         id="g6946"
         style="display:inline"><path
           id="path6948"
           style="fill:#f1511b;fill-opacity:1;fill-rule:nonzero;stroke:none"
           d="m 16300,10380.6 c -53.9,-50.4 -107.8,-96.3 -161.7,-140.1 -53.9,62.9 -107.8,129 -161.7,195.5 53.9,41.2 107.8,82 161.7,124.7 53.8,-64 107.8,-124.9 161.7,-180.1" /></g><g
         transform="matrix(0.01970719,0.00243115,0.00289687,-0.02177706,-229.31002,297.74824)"
         id="g6950"
         style="display:inline"><path
           id="path6952"
           style="fill:#f1511b;fill-opacity:1;fill-rule:nonzero;stroke:none"
           d="m 16300,10244.5 c -52.8,-78.4 -105.6,-147.3 -158.5,-209.2 -52.8,40.6 -105.7,89.2 -158.5,143.4 52.8,49.4 105.7,103.3 158.5,164.2 52.9,-41.7 105.7,-75.3 158.5,-98.4" /></g><g
         transform="matrix(0.01970977,0.00243148,0.00289724,-0.02177993,-229.31002,297.74824)"
         id="g6954"
         style="display:inline"><path
           id="path6956"
           style="fill:#9ea71d;fill-opacity:1;fill-rule:nonzero;stroke:none"
           d="m 16220.4,10226.7 c -141.3,-52.5 -298.9,-28.6 -443.1,-6.5 -113.6,17.3 -223.6,52.2 -336.3,72.6 -19.1,1.4 -38.1,1.9 -57.1,1.3 -5.3,-1.4 -10.5,-2.8 -15.8,-4.3 -86.9,-48.2 -158.9,-120.2 -245.1,-170 -31.1,-17.9 -63,-33.4 -95.6,-46.3 v -35 c 424.2,229 848.3,-189.54 1272.6,39.3 v 181.5 c -26.2,-12.7 -53.7,-22.9 -79.6,-32.6" /></g><g
         transform="matrix(0.0182275,0.00224862,0.00267937,-0.02014196,-229.31002,297.74824)"
         id="g6958"
         style="display:inline"><path
           id="path6960"
           style="fill:#6d7420;fill-opacity:1;fill-rule:nonzero;stroke:none"
           d="m 16249.6,10892.8 v -37.9 c 16.8,9.1 33.6,17.3 50.4,24.5 v 35.5 c -16.6,-8 -33.4,-15.4 -50.4,-22.1" /></g><g
         transform="matrix(0.01852721,0.00228559,0.00272342,-0.02047316,-229.31002,297.74824)"
         id="g6962"
         style="display:inline"><path
           id="path6964"
           style="fill:#a83d1f;fill-opacity:1;fill-rule:nonzero;stroke:none"
           d="m 16121.7,10786.4 c 11.9,-9.2 23.9,-18.8 35.9,-28.7 47.5,58.5 94.9,110.8 142.4,158.7 -60.9,-40.9 -116.9,-89.7 -178.3,-130" /></g><g
         transform="matrix(0.01894045,0.00233657,0.00278415,-0.02092979,-229.31002,297.74824)"
         id="g6966"
         style="display:inline"><path
           id="path6968"
           style="fill:#a83d1f;fill-opacity:1;fill-rule:nonzero;stroke:none"
           d="m 16068.2,10711 c -19.8,1.4 -39.5,1.9 -59.3,1.3 -5.5,-1.4 -11,-2.9 -16.5,-4.5 -5.7,-3.1 -11.4,-6.5 -16.9,-9.8 53.2,-57 106.3,-118.2 159.5,-181.2 55,45.7 110.1,88.3 165,130.5 -3.7,4.5 -7.4,9.2 -11.2,13.8 -73.4,17 -146.4,36.5 -220.6,49.9" /></g><g
         transform="matrix(0.01932381,0.00238386,0.00284051,-0.02135342,-229.31002,297.74824)"
         id="g6970"
         style="display:inline"><path
           id="path6972"
           style="fill:#a83d1f;fill-opacity:1;fill-rule:nonzero;stroke:none"
           d="m 16092.5,10424.4 c -35.3,5.3 -70.1,12.3 -104.8,20.1 l -11.1,-8.5 c 53.9,-66.5 107.8,-132.6 161.7,-195.5 53.9,43.8 107.8,89.7 161.7,140.1 -6.6,6.7 -13.2,13.6 -19.8,20.5 -63.5,4.3 -126.8,13.9 -187.7,23.3" /></g><g
         transform="matrix(0.01970719,0.00243115,0.00289687,-0.02177706,-229.31002,297.74824)"
         id="g6974"
         style="display:inline"><path
           id="path6976"
           style="fill:#a83d1f;fill-opacity:1;fill-rule:nonzero;stroke:none"
           d="m 16222.7,10228.1 c -70.7,-26.2 -145.5,-33.3 -220.5,-31.2 -6.4,-6.1 -12.8,-12.2 -19.2,-18.2 52.8,-54.2 105.7,-102.8 158.5,-143.4 52.9,61.9 105.7,130.8 158.5,209.2 -5.4,2.5 -10.9,5 -16.4,7.7 -20.3,-8.9 -41.1,-16.6 -60.9,-24.1" /></g></g></g></svg>
