<?xml version="1.0" encoding="UTF-8" standalone="no"?>
<!-- Created with Inkscape (http://www.inkscape.org/) -->

<svg
   width="512"
   height="512"
   viewBox="0 0 512 512"
   version="1.1"
   id="svg1"
   xml:space="preserve"
   xmlns="http://www.w3.org/2000/svg"
   xmlns:svg="http://www.w3.org/2000/svg"><defs
     id="defs1"><linearGradient
       id="SVGID_11_"
       gradientUnits="userSpaceOnUse"
       x1="131.2283"
       y1="45.385601"
       x2="364.7327"
       y2="263.13199">
		<stop
   offset="0"
   style="stop-color:#19212C"
   id="stop428" />
		<stop
   offset="3.429548e-02"
   style="stop-color:#222A35"
   id="stop430" />
		<stop
   offset="9.022294e-02"
   style="stop-color:#3A424D"
   id="stop432" />
		<stop
   offset="0.1604"
   style="stop-color:#606A73"
   id="stop434" />
		<stop
   offset="0.2"
   style="stop-color:#79838C"
   id="stop436" />
		<stop
   offset="0.2416"
   style="stop-color:#828B94"
   id="stop438" />
		<stop
   offset="0.3093"
   style="stop-color:#9AA2A9"
   id="stop440" />
		<stop
   offset="0.3949"
   style="stop-color:#C2C8CB"
   id="stop442" />
		<stop
   offset="0.4941"
   style="stop-color:#F8FBFA"
   id="stop444" />
		<stop
   offset="0.5"
   style="stop-color:#FCFEFD"
   id="stop446" />
		<stop
   offset="0.5239"
   style="stop-color:#CED2D3"
   id="stop448" />
		<stop
   offset="0.5508"
   style="stop-color:#A3A7AB"
   id="stop450" />
		<stop
   offset="0.5791"
   style="stop-color:#7D8289"
   id="stop452" />
		<stop
   offset="0.6083"
   style="stop-color:#5E646C"
   id="stop454" />
		<stop
   offset="0.6387"
   style="stop-color:#464D57"
   id="stop456" />
		<stop
   offset="0.671"
   style="stop-color:#353D47"
   id="stop458" />
		<stop
   offset="0.7062"
   style="stop-color:#2B333E"
   id="stop460" />
		<stop
   offset="0.75"
   style="stop-color:#28303B"
   id="stop462" />
		<stop
   offset="0.8127"
   style="stop-color:#2B333E"
   id="stop464" />
		<stop
   offset="0.8577"
   style="stop-color:#343C47"
   id="stop466" />
		<stop
   offset="0.8972"
   style="stop-color:#434C56"
   id="stop468" />
		<stop
   offset="0.9335"
   style="stop-color:#59626C"
   id="stop470" />
		<stop
   offset="0.9673"
   style="stop-color:#747F87"
   id="stop472" />
		<stop
   offset="0.9993"
   style="stop-color:#96A1A9"
   id="stop474" />
		<stop
   offset="1"
   style="stop-color:#97A2AA"
   id="stop476" />
	</linearGradient><linearGradient
       id="SVGID_12_"
       gradientUnits="userSpaceOnUse"
       x1="248.09911"
       y1="65.251999"
       x2="248.09911"
       y2="242.6113">
		<stop
   offset="0"
   style="stop-color:#19212C"
   id="stop481" />
		<stop
   offset="0.1401"
   style="stop-color:#222A35"
   id="stop483" />
		<stop
   offset="0.3687"
   style="stop-color:#3A424D"
   id="stop485" />
		<stop
   offset="0.6571"
   style="stop-color:#606A73"
   id="stop487" />
		<stop
   offset="0.9914"
   style="stop-color:#96A0A9"
   id="stop489" />
		<stop
   offset="1"
   style="stop-color:#97A2AA"
   id="stop491" />
	</linearGradient><clipPath
       clipPathUnits="userSpaceOnUse"
       id="clipPath24906"><path
         d="M 0,0 H 612 V 792 H 0 Z"
         id="path24904" /></clipPath><clipPath
       clipPathUnits="userSpaceOnUse"
       id="clipPath24922"><path
         d="M 0,0 H 612 V 792 H 0 Z"
         id="path24920" /></clipPath><clipPath
       clipPathUnits="userSpaceOnUse"
       id="clipPath25030"><path
         d="M 0,0 H 612 V 792 H 0 Z"
         id="path25028" /></clipPath><clipPath
       clipPathUnits="userSpaceOnUse"
       id="clipPath25046"><path
         d="M 0,0 H 612 V 792 H 0 Z"
         id="path25044" /></clipPath><clipPath
       clipPathUnits="userSpaceOnUse"
       id="clipPath25152"><path
         d="M 0,0 H 612 V 792 H 0 Z"
         id="path25150" /></clipPath><clipPath
       clipPathUnits="userSpaceOnUse"
       id="clipPath25168"><path
         d="M 0,0 H 612 V 792 H 0 Z"
         id="path25166" /></clipPath><clipPath
       clipPathUnits="userSpaceOnUse"
       id="clipPath25278"><path
         d="M 0,0 H 612 V 792 H 0 Z"
         id="path25276" /></clipPath><clipPath
       clipPathUnits="userSpaceOnUse"
       id="clipPath25294"><path
         d="M 0,0 H 612 V 792 H 0 Z"
         id="path25292" /></clipPath><clipPath
       clipPathUnits="userSpaceOnUse"
       id="clipPath25400"><path
         d="M 0,0 H 612 V 792 H 0 Z"
         id="path25398" /></clipPath><clipPath
       clipPathUnits="userSpaceOnUse"
       id="clipPath25416"><path
         d="M 0,0 H 612 V 792 H 0 Z"
         id="path25414" /></clipPath><clipPath
       clipPathUnits="userSpaceOnUse"
       id="clipPath25524"><path
         d="M 0,0 H 612 V 792 H 0 Z"
         id="path25522" /></clipPath><clipPath
       clipPathUnits="userSpaceOnUse"
       id="clipPath25540"><path
         d="M 0,0 H 612 V 792 H 0 Z"
         id="path25538" /></clipPath><clipPath
       clipPathUnits="userSpaceOnUse"
       id="clipPath25650"><path
         d="M 0,0 H 612 V 792 H 0 Z"
         id="path25648" /></clipPath><clipPath
       clipPathUnits="userSpaceOnUse"
       id="clipPath25666"><path
         d="M 0,0 H 612 V 792 H 0 Z"
         id="path25664" /></clipPath><clipPath
       clipPathUnits="userSpaceOnUse"
       id="clipPath25770"><path
         d="M 0,0 H 612 V 792 H 0 Z"
         id="path25768" /></clipPath><clipPath
       clipPathUnits="userSpaceOnUse"
       id="clipPath25786"><path
         d="M 0,0 H 612 V 792 H 0 Z"
         id="path25784" /></clipPath></defs><g
     id="layer1"><g
       id="g1"
       transform="matrix(3.7795276,0,0,3.7795276,-3759.9204,-726.01047)"><g
         id="layer1-4"
         style="display:inline"
         transform="matrix(1.9364059,0,0,1.9364059,-995.30046,-244.59493)"><g
           id="g506"
           style="display:inline"
           transform="matrix(0.26458333,0,0,0.26458333,997.11077,219.6934)">
	<linearGradient
   id="linearGradient1263"
   gradientUnits="userSpaceOnUse"
   x1="131.2283"
   y1="45.385601"
   x2="364.7327"
   y2="263.13199">
		<stop
   offset="0"
   style="stop-color:#19212C"
   id="stop1213" />
		<stop
   offset="3.429548e-02"
   style="stop-color:#222A35"
   id="stop1215" />
		<stop
   offset="9.022294e-02"
   style="stop-color:#3A424D"
   id="stop1217" />
		<stop
   offset="0.1604"
   style="stop-color:#606A73"
   id="stop1219" />
		<stop
   offset="0.2"
   style="stop-color:#79838C"
   id="stop1221" />
		<stop
   offset="0.2416"
   style="stop-color:#828B94"
   id="stop1223" />
		<stop
   offset="0.3093"
   style="stop-color:#9AA2A9"
   id="stop1225" />
		<stop
   offset="0.3949"
   style="stop-color:#C2C8CB"
   id="stop1227" />
		<stop
   offset="0.4941"
   style="stop-color:#F8FBFA"
   id="stop1229" />
		<stop
   offset="0.5"
   style="stop-color:#FCFEFD"
   id="stop1231" />
		<stop
   offset="0.5239"
   style="stop-color:#CED2D3"
   id="stop1233" />
		<stop
   offset="0.5508"
   style="stop-color:#A3A7AB"
   id="stop1235" />
		<stop
   offset="0.5791"
   style="stop-color:#7D8289"
   id="stop1237" />
		<stop
   offset="0.6083"
   style="stop-color:#5E646C"
   id="stop1239" />
		<stop
   offset="0.6387"
   style="stop-color:#464D57"
   id="stop1241" />
		<stop
   offset="0.671"
   style="stop-color:#353D47"
   id="stop1243" />
		<stop
   offset="0.7062"
   style="stop-color:#2B333E"
   id="stop1245" />
		<stop
   offset="0.75"
   style="stop-color:#28303B"
   id="stop1247" />
		<stop
   offset="0.8127"
   style="stop-color:#2B333E"
   id="stop1249" />
		<stop
   offset="0.8577"
   style="stop-color:#343C47"
   id="stop1251" />
		<stop
   offset="0.8972"
   style="stop-color:#434C56"
   id="stop1253" />
		<stop
   offset="0.9335"
   style="stop-color:#59626C"
   id="stop1255" />
		<stop
   offset="0.9673"
   style="stop-color:#747F87"
   id="stop1257" />
		<stop
   offset="0.9993"
   style="stop-color:#96A1A9"
   id="stop1259" />
		<stop
   offset="1"
   style="stop-color:#97A2AA"
   id="stop1261" />
	</linearGradient>
	<path
   class="st14"
   d="m 380,221.2 c 0,35.8 -29.2,65 -65,65 H 180.9 c -35.8,0 -65,-29.2 -65,-65 v -134 c 0,-35.8 29.3,-65 65,-65 H 315 c 35.8,0 65,29.2 65,65 z"
   id="path479"
   style="display:inline;fill:url(#SVGID_11_)" />
	<linearGradient
   id="linearGradient1278"
   gradientUnits="userSpaceOnUse"
   x1="248.09911"
   y1="65.251999"
   x2="248.09911"
   y2="242.6113">
		<stop
   offset="0"
   style="stop-color:#19212C"
   id="stop1266" />
		<stop
   offset="0.1401"
   style="stop-color:#222A35"
   id="stop1268" />
		<stop
   offset="0.3687"
   style="stop-color:#3A424D"
   id="stop1270" />
		<stop
   offset="0.6571"
   style="stop-color:#606A73"
   id="stop1272" />
		<stop
   offset="0.9914"
   style="stop-color:#96A0A9"
   id="stop1274" />
		<stop
   offset="1"
   style="stop-color:#97A2AA"
   id="stop1276" />
	</linearGradient>
	<path
   class="st15"
   d="m 342.2,217.6 c 0,13.8 -11.2,25 -25,25 H 179 c -13.8,0 -25,-11.2 -25,-25 V 90.3 c 0,-13.8 11.2,-25 25,-25 h 138.2 c 13.8,0 25,11.2 25,25 z"
   id="path494"
   style="display:inline;fill:url(#SVGID_12_)" />
	<path
   class="st2"
   d="M 317.2,59.3 H 179 c -13.8,0 -25,11.2 -25,25 v 6 c 0,-13.8 11.2,-25 25,-25 h 138.2 c 13.8,0 25,11.2 25,25 v -6 c 0,-13.8 -11.3,-25 -25,-25 z"
   id="path496"
   style="display:inline;fill:#0d0b0b" />
	<path
   class="st3"
   d="M 317.2,242.6 H 179 c -13.8,0 -25,-11.2 -25,-25 v 6 c 0,13.8 11.2,25 25,25 h 138.2 c 13.8,0 25,-11.2 25,-25 v -6 c 0,13.8 -11.3,25 -25,25 z"
   id="path498"
   style="display:inline;fill:#dbe4e7" />
	
</g><path
           id="path6714"
           style="display:inline;fill:#e7e6e6;fill-opacity:1;fill-rule:nonzero;stroke:none;stroke-width:0.0152476"
           d="m 1069.2256,271.57399 c -7.5611,2.91305 -16.2939,0.16193 -19.5046,-6.14352 -3.2106,-6.30545 0.3162,-13.77804 7.8772,-16.68949 7.5626,-2.91144 16.2954,-0.16032 19.5046,6.14513 3.2121,6.30545 -0.3162,13.77645 -7.8772,16.68788" /><path
           id="path6716"
           style="display:inline;fill:#2f3132;fill-opacity:1;fill-rule:nonzero;stroke:none;stroke-width:0.0152476"
           d="m 1068.9123,258.14545 0.248,0.0962 v 0.0144 l -4.9653,1.27296 -2.5334,-4.784 3.3948,-4.17638 0.062,0.0272 v 0.0128 l 0.014,-0.003 4.5766,2.10823 v 0.0289 l -0.2566,0.21002 0.06,0.0898 0.1841,-0.1523 -0.5235,5.23931 -0.2233,-0.0882 -0.036,0.10421" /><path
           id="path6718"
           style="display:inline;fill:#595e64;fill-opacity:1;fill-rule:nonzero;stroke:none;stroke-width:0.0152476"
           d="m 1069.7085,252.74261 -0.01,0.008 v -0.0417 l 0.01,0.005 v 0.0289" /><path
           id="path6720"
           style="display:inline;fill:#2f3132;fill-opacity:1;fill-rule:nonzero;stroke:none;stroke-width:0.0152476"
           d="m 1053.8583,259.75027 -4.932,-1.05652 -0.067,-0.75672 c 0.6425,-2.56194 2.2086,-4.95394 4.526,-6.80244 l 3.0772,3.71144 v 0 l -2.6016,4.90424" /><path
           id="path6722"
           style="display:inline;fill:#191918;fill-opacity:1;fill-rule:nonzero;stroke:none;stroke-width:0.0152476"
           d="m 1052.3168,259.42001 -3.3905,-0.72626 -0.067,-0.75672 c 0.6425,-2.56194 2.2086,-4.95394 4.526,-6.80244 l 1.9272,2.32626 c -1.6706,1.30342 -2.6291,3.61205 -2.996,5.95916" /><path
           id="path6724"
           style="display:inline;fill:#2f3132;fill-opacity:1;fill-rule:nonzero;stroke:none;stroke-width:0.0152476"
           d="m 1063.0885,269.74152 -3.3281,2.69821 c -0.8933,-0.16833 -1.7648,-0.40721 -2.6001,-0.71183 l -2.3289,-1.80201 1.5922,-5.27298 5.1365,-0.11062 1.5284,5.19923" /><path
           id="path6726"
           style="display:inline;fill:#595e64;fill-opacity:1;fill-rule:nonzero;stroke:none;stroke-width:0.0152476"
           d="m 1057.1313,270.85094 c 0.8338,0.30301 1.7054,0.54029 2.5987,0.70863 l 3.1439,-2.54752 0.2146,0.72947 -3.3281,2.69821 c -0.8933,-0.16833 -1.7648,-0.40721 -2.6001,-0.71183 l -2.3289,-1.80201 0.2073,-0.69259 2.0926,1.61764" /><path
           id="path6728"
           style="display:inline;fill:#2f3132;fill-opacity:1;fill-rule:nonzero;stroke:none;stroke-width:0.0152476"
           d="m 1061.5978,254.84603 2.5087,4.73751 -2.5725,4.84973 -5.0799,0.11062 -2.5088,-4.74071 2.5711,-4.84653 z m 2.5972,4.683 -2.5334,-4.784 -0.01,-0.0112 -5.1684,0.11222 h -0.025 v 0 l -2.6015,4.90424 -0.03,0.0545 2.5668,4.84813 h 0.029 l 5.1364,-0.11062 h 0.032 l 2.6306,-4.96035 -0.027,-0.0529" /><path
           id="path6730"
           style="display:inline;fill:#2f3132;fill-opacity:1;fill-rule:nonzero;stroke:none;stroke-width:0.0152476"
           d="m 1054.2658,270.31387 -0.1015,-0.0641 0.6424,-0.37355 0.025,0.0497 0.022,0.0481 -0.5873,0.33988" /><path
           id="path6732"
           style="display:inline;fill:#2f3132;fill-opacity:1;fill-rule:nonzero;stroke:none;stroke-width:0.0152476"
           d="m 1066.8241,270.8285 -3.7486,-1.00201 0.026,-0.10742 3.8255,1.02446 -0.1073,0.0561 v 0.0289" /><path
           id="path6734"
           style="display:inline;fill:#2f3132;fill-opacity:1;fill-rule:nonzero;stroke:none;stroke-width:0.0152476"
           d="m 1071.5153,268.44131 -0.031,-0.0385 -0.075,0.0401 1.2051,-3.61525 0.046,0.0208 0.048,0.0161 -1.1935,3.57677" /><path
           id="path6736"
           style="display:inline;fill:#2f3132;fill-opacity:1;fill-rule:nonzero;stroke:none;stroke-width:0.0152476"
           d="m 1069.4518,252.95263 0.2567,-0.21002 3.1265,-2.55873 0.093,0.0609 -3.2324,2.64531 -0.1842,0.1523 -0.059,-0.0898" /><path
           id="path6738"
           style="display:inline;fill:#2f3132;fill-opacity:1;fill-rule:nonzero;stroke:none;stroke-width:0.0152476"
           d="m 1065.1187,250.59591 -0.6061,-3.00283 0.1058,0.005 0.6018,2.98519 -0.084,0.0224 -0.014,0.003 v -0.0128" /><path
           id="path6740"
           style="display:inline;fill:#2f3132;fill-opacity:1;fill-rule:nonzero;stroke:none;stroke-width:0.0152476"
           d="m 1076.5894,265.6437 -3.9284,-0.7952 -0.5293,-5.51827 4.6187,-2.37116 1.4878,1.76194 c 0.2379,2.39681 -0.3553,4.79842 -1.6488,6.92269" /><path
           id="path6742"
           style="display:inline;fill:#595e64;fill-opacity:1;fill-rule:nonzero;stroke:none;stroke-width:0.0152476"
           d="m 1073.315,263.8497 3.8269,0.77595 c -0.1682,0.34309 -0.3495,0.68458 -0.5525,1.01805 l -3.9284,-0.7952 -0.5293,-5.51827 0.7149,-0.36393 0.4684,4.8834" /><path
           id="path6744"
           style="display:inline;fill:#2f3132;fill-opacity:1;fill-rule:nonzero;stroke:none;stroke-width:0.0152476"
           d="m 1071.5153,268.44131 1.1283,1.33227 c -1.0195,0.70863 -2.1622,1.31785 -3.418,1.80041 -0.7454,0.28858 -1.501,0.51945 -2.2637,0.69741 l -0.1378,-1.4429 v -0.0289 l 0.1073,-0.0561 4.4824,-2.30062 0.075,-0.0401 0.03,0.0385" /><path
           id="path6746"
           style="display:inline;fill:#595e64;fill-opacity:1;fill-rule:nonzero;stroke:none;stroke-width:0.0152476"
           d="m 1068.6368,270.82529 c 0.9121,-0.30781 1.8112,-0.66694 2.6378,-1.20562 0.261,-0.17154 0.5235,-0.36072 0.7918,-0.52906 l 0.5772,0.68297 c -1.0195,0.70863 -2.1622,1.31785 -3.418,1.80041 -0.7454,0.28858 -1.501,0.51945 -2.2637,0.69741 l -0.08,-0.82887 c 0.5902,-0.18597 1.1775,-0.42325 1.7546,-0.61724" /><path
           id="path6748"
           style="display:inline;fill:#2f3132;fill-opacity:1;fill-rule:nonzero;stroke:none;stroke-width:0.0152476"
           d="m 1077.2507,255.18591 0.065,0.13948 -0.4713,1.58238 1.3747,1.62406 0.019,0.18918 -1.4878,-1.76194 -0.019,-0.0224 0.5191,-1.75072" /><path
           id="path6750"
           style="display:inline;fill:#2f3132;fill-opacity:1;fill-rule:nonzero;stroke:none;stroke-width:0.0152476"
           d="m 1069.1603,258.24165 -0.248,-0.0962 0.036,-0.10421 0.2233,0.0882 2.9772,1.14951 -0.017,0.0513 -0.019,0.0529 -2.9525,-1.14149" /><path
           id="path6752"
           style="display:inline;fill:#959797;fill-opacity:1;fill-rule:nonzero;stroke:none;stroke-width:0.0152476"
           d="m 1048.8596,257.93703 0.067,0.75672 3.1178,0.66694 c -0.4394,2.27978 -0.1494,4.66536 0.9904,6.90506 0.5351,1.05331 1.2269,2.00562 2.0389,2.85212 l -0.2421,0.80802 -0.025,-0.0497 -0.6425,0.37355 0.1016,0.0641 0.5873,-0.33988 -0.022,-0.0481 2.3289,1.80041 c -3.2309,-1.17676 -5.9384,-3.34912 -7.4393,-6.29583 -1.3196,-2.5908 -1.5009,-5.382 -0.7294,-7.97119 -0.048,0.15871 -0.091,0.31904 -0.132,0.47775" /><path
           id="path6754"
           style="display:inline;fill:#959797;fill-opacity:1;fill-rule:nonzero;stroke:none;stroke-width:0.0152476"
           d="m 1057.1632,271.7279 c 0.2045,0.0738 0.4118,0.1475 0.6221,0.21323 -0.2103,-0.0673 -0.4176,-0.13948 -0.6221,-0.21323" /><path
           id="path6756"
           style="display:inline;fill:#959797;fill-opacity:1;fill-rule:nonzero;stroke:none;stroke-width:0.0152476"
           d="m 1057.7984,271.94594 c 0.2102,0.0657 0.422,0.12826 0.6366,0.18598 -0.2146,-0.0577 -0.4264,-0.12024 -0.6366,-0.18598" /><path
           id="path6758"
           style="display:inline;fill:#959797;fill-opacity:1;fill-rule:nonzero;stroke:none;stroke-width:0.0152476"
           d="m 1049.9647,255.13942 c 0.1638,-0.29339 0.3393,-0.58357 0.5278,-0.86894 -0.1885,0.28537 -0.364,0.57555 -0.5278,0.86894" /><path
           id="path6760"
           style="display:inline;fill:#959797;fill-opacity:1;fill-rule:nonzero;stroke:none;stroke-width:0.0152476"
           d="m 1059.759,272.43813 c -0.4452,-0.0834 -0.8861,-0.18597 -1.3182,-0.30461 0.4321,0.11864 0.873,0.22124 1.3182,0.30461" /><path
           id="path6762"
           style="display:inline;fill:#959797;fill-opacity:1;fill-rule:nonzero;stroke:none;stroke-width:0.0152476"
           d="m 1049.3193,256.50857 c 0.1828,-0.46173 0.3974,-0.91544 0.641,-1.35953 -0.2436,0.44409 -0.4582,0.8978 -0.641,1.35953" /><path
           id="path6764"
           style="display:inline;fill:#959797;fill-opacity:1;fill-rule:nonzero;stroke:none;stroke-width:0.0152476"
           d="m 1059.888,272.33552 c 0.1842,0.077 0.3713,0.1491 0.5612,0.21644 -0.232,-0.0321 -0.4611,-0.0689 -0.6888,-0.11223 l 0.1276,-0.10421" /><path
           id="path6766"
           style="display:inline;fill:#959797;fill-opacity:1;fill-rule:nonzero;stroke:none;stroke-width:0.0152476"
           d="m 1067.9306,248.43156 v 0 l -0.103,-0.003 c -0.9948,-0.0369 -2.0041,0.0112 -3.012,0.1491 l -0.1972,-0.97957 c 1.7634,0.0754 3.4804,0.41684 5.0697,1.00041 -0.5771,-0.085 -1.1644,-0.13948 -1.7575,-0.16674" /><path
           id="path6768"
           style="display:inline;fill:#959797;fill-opacity:1;fill-rule:nonzero;stroke:none;stroke-width:0.0152476"
           d="m 1053.3856,251.13459 c -0.7237,0.57715 -1.3733,1.20562 -1.9461,1.87736 0.5728,-0.67174 1.2224,-1.30021 1.9461,-1.87736" /><path
           id="path6770"
           style="display:inline;fill:#959797;fill-opacity:1;fill-rule:nonzero;stroke:none;stroke-width:0.0152476"
           d="m 1064.7156,248.59028 c -1.2805,0.18117 -2.5566,0.50662 -3.8023,0.98758 -1.5937,0.61243 -3.0062,1.42847 -4.2156,2.392 -0.5366,0.42806 -1.0325,0.88498 -1.4864,1.36915 l -1.8257,-2.20442 c 1.2094,-0.96354 2.6218,-1.78118 4.2126,-2.39361 2.2608,-0.87054 4.626,-1.23287 6.9144,-1.1479 l 0.203,0.9972" /><path
           id="path6772"
           style="display:inline;fill:#959797;fill-opacity:1;fill-rule:nonzero;stroke:none;stroke-width:0.0152476"
           d="m 1048.9916,257.45607 c 0.094,-0.31263 0.2016,-0.62525 0.3219,-0.93307 -0.1203,0.30782 -0.2276,0.62044 -0.3219,0.93307" /><path
           id="path6774"
           style="display:inline;fill:#959797;fill-opacity:1;fill-rule:nonzero;stroke:none;stroke-width:0.0152476"
           d="m 1051.4351,253.01676 c -0.3408,0.40241 -0.654,0.81764 -0.9397,1.24731 0.2857,-0.42967 0.5989,-0.8449 0.9397,-1.24731" /><path
           id="path6776"
           style="display:inline;fill:#595e64;fill-opacity:1;fill-rule:nonzero;stroke:none;stroke-width:0.0152476"
           d="m 1069.1603,258.24165 v 0.0144 l -4.9653,1.27296 -2.5334,-4.784 0.5104,-0.63006 2.1506,4.06094 4.9639,-1.27455 v -0.0128 l 0.012,-0.11383 0.3857,-3.87497 0.01,-0.01 -0.5235,5.23931 -0.012,0.11223" /><path
           id="path6778"
           style="display:inline;fill:#aeacac;fill-opacity:1;fill-rule:nonzero;stroke:none;stroke-width:0.0152476"
           d="m 1058.1827,243.07521 c 0.091,0.26293 0.2566,0.497 0.4597,0.71023 0.3059,0.31744 0.7033,0.58678 1.0977,0.82085 0.3945,0.23407 0.7831,0.43126 1.0702,0.59479 1.0354,0.59319 2.1114,1.07255 3.1309,1.66574 1.1108,0.6445 2.2695,1.18157 3.4325,1.68819 1.0862,0.47295 2.2318,1.1447 3.3789,1.48618 0.377,0.11223 0.7497,0.33828 1.1296,0.51624 0.103,0.0449 0.2074,0.11864 0.3321,0.17475 l 0.1784,0.0593 0.1493,0.0497 c 0.1001,0.0433 0.2016,0.11543 0.3278,0.17315 l 0.1783,0.0609 0.148,0.0465 c 0.4292,0.19239 0.8294,0.45852 1.2268,0.73107 1.2486,0.85611 2.2593,2.20442 2.9568,3.76275 0.699,1.55672 1.0833,3.32347 1.0819,5.00203 0,0.77917 -0.083,1.54069 -0.2538,2.25413 -0.1001,0.42485 -0.2074,0.84329 -0.3263,1.25852 -0.2132,0.75191 -0.5525,1.42847 -0.9774,2.08258 -0.1378,0.21162 -0.2755,0.42165 -0.422,0.62044 -0.1552,0.21163 -0.2828,0.43608 -0.4307,0.62366 -0.1392,0.17635 -0.3219,0.33186 -0.4916,0.51463 -0.1465,0.15872 -0.2654,0.32064 -0.4104,0.4473 -0.2451,0.21001 -0.5061,0.4024 -0.77,0.598 -0.2929,0.21803 -0.6018,0.46332 -0.9107,0.61723 -0.3393,0.16674 -0.7294,0.26614 -1.1021,0.41684 -3.9488,1.5952 -8.1644,2.36795 -12.087,4.14431 -1.1471,0.51784 -2.2579,1.11424 -3.3818,1.67055 -0.7338,0.36233 -1.4748,0.72787 -2.1709,1.18799 l -0.1667,0.13467 c -0.2248,0.1972 -0.5612,0.53548 -0.8817,0.82566 -0.1595,0.14429 -0.3147,0.27735 -0.4452,0.37034 l -0.1726,0.10741 -0.099,0.0321 v 0 l -0.1276,0.0946 0.086,0.13788 0.046,0.008 c 0.074,-0.002 0.1406,-0.0289 0.2146,-0.0689 0.1276,-0.0689 0.2741,-0.18116 0.4321,-0.31423 0.235,-0.20361 0.4945,-0.4505 0.7208,-0.66533 0.1131,-0.10742 0.216,-0.20842 0.3059,-0.28698 0.087,-0.0802 0.1596,-0.14268 0.2031,-0.16994 0.6815,-0.4505 1.4139,-0.81283 2.1462,-1.17516 1.1297,-0.55792 2.2376,-1.15271 3.3774,-1.66734 3.8922,-1.76194 8.1034,-2.53789 12.0783,-4.14111 0.3553,-0.14589 0.7497,-0.24529 1.1166,-0.42325 0.3364,-0.16673 0.654,-0.42485 0.9412,-0.63648 0.2639,-0.19559 0.5293,-0.39118 0.7845,-0.61082 0.1697,-0.1475 0.2929,-0.31744 0.4278,-0.46333 0.1566,-0.16994 0.3437,-0.32545 0.5046,-0.52586 0.1624,-0.21002 0.2901,-0.43607 0.4351,-0.63167 0.1508,-0.2052 0.2915,-0.42164 0.4292,-0.63166 0.4336,-0.66694 0.7875,-1.36755 1.0079,-2.14991 0.1203,-0.42005 0.2276,-0.8433 0.3306,-1.26815 0.1755,-0.73748 0.2596,-1.51664 0.2596,-2.31665 0,-1.71865 -0.3916,-3.51585 -1.1036,-5.10785 -0.7135,-1.59199 -1.746,-2.97557 -3.038,-3.85894 -0.3974,-0.27254 -0.8092,-0.54669 -1.2588,-0.7503 l -0.1783,-0.0577 -0.148,-0.0481 c -0.1,-0.0449 -0.2015,-0.12024 -0.3277,-0.17635 l -0.1784,-0.0593 -0.1479,-0.0465 c -0.1029,-0.0481 -0.2073,-0.11704 -0.3306,-0.17636 -0.3669,-0.17154 -0.7468,-0.4024 -1.1558,-0.52425 -1.1151,-0.33186 -2.2564,-0.9972 -3.3556,-1.47977 -1.163,-0.50501 -2.313,-1.03728 -3.4137,-1.67696 -1.0325,-0.5996 -2.1085,-1.08217 -3.1323,-1.66735 -0.3915,-0.22285 -0.9484,-0.49539 -1.4473,-0.83207 -0.2494,-0.16834 -0.4829,-0.3495 -0.6714,-0.54509 -0.1885,-0.19559 -0.3306,-0.40401 -0.406,-0.61884 l -0.1392,-0.0705 -0.062,0.15391" /><path
           id="path6780"
           style="display:inline;fill:#aeacac;fill-opacity:1;fill-rule:nonzero;stroke:none;stroke-width:0.0152476"
           d="m 1055.2258,242.39545 c 0.091,0.26133 0.2567,0.497 0.4597,0.70862 0.3074,0.31744 0.7048,0.58838 1.0978,0.82245 0.393,0.23407 0.783,0.43127 1.0687,0.5948 1.0369,0.59158 2.1129,1.07415 3.1323,1.66414 1.1109,0.64609 2.2695,1.18317 3.4326,1.68979 1.0861,0.47295 2.2317,1.14309 3.3803,1.48778 0.3755,0.10902 0.7482,0.33507 1.1282,0.51143 0.1029,0.0481 0.2073,0.12024 0.3321,0.17795 l 0.1798,0.0593 0.1479,0.0465 c 0.099,0.0449 0.2016,0.12024 0.3277,0.17635 l 0.1784,0.0609 0.1494,0.0481 c 0.4278,0.19078 0.828,0.45692 1.2239,0.72946 1.25,0.85452 2.2622,2.20282 2.9583,3.76275 0.699,1.55833 1.0833,3.32187 1.0818,5.00204 0,0.78077 -0.081,1.54069 -0.2538,2.25572 -0.1,0.42165 -0.2073,0.84009 -0.3248,1.25693 -0.2146,0.75191 -0.554,1.42846 -0.9789,2.08257 -0.1377,0.21163 -0.2755,0.42165 -0.422,0.62045 -0.1551,0.21002 -0.2813,0.43447 -0.4306,0.62365 -0.1393,0.17636 -0.3234,0.32866 -0.4916,0.51303 -0.1465,0.16032 -0.2654,0.32064 -0.4104,0.4473 -0.2451,0.21162 -0.5061,0.40401 -0.7701,0.5996 -0.2929,0.21804 -0.6018,0.46333 -0.9107,0.61564 -0.3393,0.16833 -0.7294,0.26613 -1.1021,0.41683 -3.9487,1.5968 -8.1643,2.36956 -12.087,4.14432 -1.1456,0.51944 -2.2579,1.11423 -3.3832,1.67055 -0.7323,0.36393 -1.4733,0.73106 -2.168,1.18959 l -0.1667,0.13307 c -0.2248,0.19719 -0.5627,0.53707 -0.8832,0.82725 -0.1595,0.14429 -0.3146,0.27576 -0.4452,0.37035 l -0.1711,0.10741 -0.099,0.032 -0.01,-0.002 -0.1276,0.0946 0.084,0.14109 0.049,0.005 c 0.072,-0.002 0.1392,-0.0289 0.2132,-0.0673 0.1276,-0.0689 0.2755,-0.18116 0.4321,-0.31583 0.2364,-0.1988 0.496,-0.4489 0.7208,-0.66373 0.1116,-0.10902 0.2175,-0.20682 0.3059,-0.28698 0.087,-0.0802 0.161,-0.14268 0.2031,-0.16994 0.6815,-0.4489 1.4139,-0.81444 2.1476,-1.17676 1.1283,-0.55792 2.2362,-1.15271 3.376,-1.66734 3.8922,-1.76194 8.1049,-2.5363 12.0783,-4.14111 0.3553,-0.14429 0.7497,-0.24209 1.1166,-0.42165 0.3364,-0.16834 0.654,-0.42325 0.9441,-0.63648 0.261,-0.19559 0.5278,-0.39118 0.7816,-0.61082 0.1696,-0.1459 0.2929,-0.31584 0.4292,-0.46494 0.1552,-0.16833 0.3423,-0.32705 0.5018,-0.52746 0.1638,-0.20681 0.2915,-0.43446 0.435,-0.63006 0.1523,-0.20521 0.293,-0.41683 0.4307,-0.63006 0.4336,-0.66854 0.7874,-1.36915 1.0079,-2.14992 0.1203,-0.42164 0.2276,-0.84489 0.3306,-1.26814 0.1769,-0.73748 0.2596,-1.51825 0.2596,-2.31665 0,-1.71865 -0.3916,-3.51746 -1.1036,-5.10624 -0.712,-1.592 -1.7474,-2.97718 -3.038,-3.86215 -0.3974,-0.27415 -0.8078,-0.5467 -1.2573,-0.7487 l -0.1798,-0.0593 -0.148,-0.0481 c -0.1,-0.0449 -0.203,-0.11864 -0.3277,-0.17475 l -0.1798,-0.0593 -0.1479,-0.0481 c -0.1015,-0.0465 -0.206,-0.11703 -0.3292,-0.17635 -0.3669,-0.16994 -0.7468,-0.4008 -1.1558,-0.52265 -1.1166,-0.33347 -2.2564,-0.9988 -3.3571,-1.47977 -1.1616,-0.50661 -2.3115,-1.03728 -3.4122,-1.67696 -1.031,-0.598 -2.1085,-1.08057 -3.1323,-1.66735 -0.3901,-0.22445 -0.9484,-0.497 -1.4473,-0.83207 -0.2494,-0.16834 -0.4829,-0.3511 -0.6714,-0.5467 -0.1885,-0.19398 -0.3306,-0.4024 -0.4046,-0.61884 l -0.1392,-0.0689 -0.064,0.15391" /><path
           id="path6782"
           style="display:inline;fill:#aeacac;fill-opacity:1;fill-rule:nonzero;stroke:none;stroke-width:0.0152476"
           d="m 1053.4508,242.39545 c 0.091,0.26133 0.2567,0.497 0.4597,0.70862 0.306,0.31744 0.7048,0.58838 1.0978,0.82245 0.3944,0.23407 0.7831,0.43127 1.0702,0.5948 1.0354,0.59158 2.1114,1.07415 3.1294,1.66414 1.1123,0.64609 2.2709,1.18317 3.4354,1.68979 1.0847,0.47295 2.2304,1.14309 3.3789,1.48778 0.3756,0.10902 0.7482,0.33507 1.1282,0.51143 0.1029,0.0481 0.2074,0.12024 0.3321,0.17795 l 0.1783,0.0593 0.1494,0.0465 c 0.1001,0.0449 0.2016,0.12024 0.3277,0.17635 l 0.1784,0.0609 0.1479,0.0481 c 0.4278,0.19078 0.8295,0.45692 1.2269,0.72946 1.2485,0.85452 2.2593,2.20282 2.9583,3.76275 0.6975,1.55833 1.0803,3.32187 1.0803,5.00204 0,0.78077 -0.081,1.54069 -0.2538,2.25572 -0.1015,0.42165 -0.2073,0.84009 -0.3248,1.25693 -0.2146,0.75191 -0.5539,1.42846 -0.9788,2.08257 -0.1364,0.21163 -0.2756,0.42165 -0.422,0.62045 -0.1567,0.21002 -0.2814,0.43447 -0.4307,0.62365 -0.1392,0.17636 -0.322,0.32866 -0.4916,0.51303 -0.1465,0.16032 -0.2654,0.32064 -0.4104,0.4473 -0.2451,0.21162 -0.5061,0.40401 -0.7701,0.5996 -0.2929,0.21804 -0.6032,0.46333 -0.9106,0.61564 -0.3394,0.16833 -0.7295,0.26613 -1.1007,0.41683 -3.9502,1.5968 -8.1658,2.36956 -12.0885,4.14432 -1.147,0.51944 -2.2578,1.11423 -3.3817,1.67055 -0.7338,0.36393 -1.4734,0.73106 -2.1709,1.18959 l -0.1668,0.13307 c -0.2233,0.19719 -0.5612,0.53707 -0.8816,0.82725 -0.1596,0.14429 -0.3147,0.27576 -0.4452,0.37035 l -0.1712,0.10741 -0.099,0.032 -0.01,-0.002 -0.1276,0.0946 0.084,0.14109 0.049,0.005 c 0.074,-0.002 0.1392,-0.0289 0.2132,-0.0673 0.1276,-0.0689 0.2741,-0.18116 0.4307,-0.31583 0.2378,-0.1988 0.4959,-0.4489 0.7222,-0.66373 0.1131,-0.10902 0.2175,-0.20682 0.3045,-0.28698 0.089,-0.0802 0.1624,-0.14268 0.2045,-0.16994 0.6815,-0.4489 1.4139,-0.81444 2.1462,-1.17676 1.1282,-0.55792 2.2376,-1.15271 3.3759,-1.66734 3.8922,-1.76194 8.1049,-2.5363 12.0798,-4.14111 0.3553,-0.14429 0.7497,-0.24209 1.1166,-0.42165 0.3364,-0.16834 0.654,-0.42325 0.9426,-0.63648 0.2639,-0.19559 0.5293,-0.39118 0.7831,-0.61082 0.1697,-0.1459 0.2929,-0.31584 0.4292,-0.46494 0.1537,-0.16833 0.3423,-0.32705 0.5018,-0.52746 0.1638,-0.20681 0.2915,-0.43446 0.4365,-0.63006 0.1508,-0.20521 0.2915,-0.41683 0.4292,-0.63006 0.4336,-0.66854 0.786,-1.36915 1.0093,-2.14992 0.1189,-0.42164 0.2262,-0.84489 0.3278,-1.26814 0.1769,-0.73748 0.2624,-1.51825 0.2624,-2.31665 0,-1.72025 -0.393,-3.51746 -1.105,-5.10624 -0.712,-1.592 -1.746,-2.97718 -3.038,-3.86215 -0.3988,-0.27415 -0.8092,-0.5467 -1.2573,-0.7487 l -0.1798,-0.0593 -0.148,-0.0481 c -0.1015,-0.0433 -0.203,-0.11864 -0.3277,-0.17475 l -0.1784,-0.0593 -0.1493,-0.0481 c -0.1015,-0.0463 -0.2059,-0.1168 -0.3292,-0.17612 -0.3669,-0.16994 -0.7468,-0.40081 -1.1572,-0.52265 -1.1137,-0.33347 -2.255,-0.99881 -3.3557,-1.47977 -1.1601,-0.50662 -2.3115,-1.03728 -3.4122,-1.67696 -1.0325,-0.59801 -2.1085,-1.08057 -3.1309,-1.66735 -0.3929,-0.22445 -0.9513,-0.497 -1.4501,-0.83207 -0.248,-0.16834 -0.48,-0.35111 -0.67,-0.5467 -0.1885,-0.19399 -0.3306,-0.40241 -0.4046,-0.61884 l -0.1392,-0.0689 -0.064,0.15391" /><path
           id="path6784"
           style="display:inline;fill:#aeacac;fill-opacity:1;fill-rule:nonzero;stroke:none;stroke-width:0.0152476"
           d="m 1049.1453,242.3714 c 0.075,0.50341 0.2813,0.92666 0.509,1.27616 0.2277,0.3479 0.4757,0.63007 0.641,0.8465 0.4553,0.59319 0.9266,1.07576 1.3689,1.66414 0.4887,0.6493 0.9992,1.18638 1.5082,1.6946 0.2349,0.23247 0.48,0.51784 0.728,0.79039 0.2479,0.26934 0.5003,0.52746 0.7613,0.70541 0.072,0.0481 0.1523,0.12826 0.2335,0.21964 0.08,0.093 0.1624,0.19239 0.2494,0.28217 l 0.145,0.17796 0.093,0.0705 0.049,0.0385 0.062,0.0769 0.081,0.0978 0.093,0.0721 0.051,0.0353 c 0.1813,0.18598 0.3553,0.4489 0.5279,0.72145 0.5423,0.8465 0.989,2.20282 1.2949,3.76756 0.306,1.56314 0.4757,3.3379 0.4757,5.02929 0,0.78558 -0.038,1.55191 -0.1117,2.27015 -0.045,0.42486 -0.091,0.8433 -0.1435,1.26334 -0.094,0.75832 -0.2451,1.44129 -0.4293,2.0954 -0.062,0.21163 -0.1218,0.42165 -0.187,0.62045 -0.067,0.21162 -0.1219,0.43607 -0.1886,0.62525 -0.061,0.17796 -0.1406,0.32866 -0.2146,0.51464 -0.064,0.15871 -0.116,0.32224 -0.1784,0.44569 -0.1073,0.21002 -0.2218,0.40081 -0.3364,0.598 -0.1276,0.21643 -0.2639,0.46493 -0.393,0.60762 -0.1392,0.15872 -0.3045,0.25491 -0.4756,0.41042 -0.86,0.7952 -1.7489,1.38518 -2.6408,2.00082 -0.8903,0.61403 -1.7865,1.25532 -2.6494,2.14991 -0.5046,0.52105 -0.9919,1.11584 -1.482,1.67055 -0.3205,0.36233 -0.6468,0.73427 -0.9542,1.196 l -0.075,0.13788 c -0.097,0.19719 -0.2466,0.53707 -0.3858,0.82565 -0.07,0.1459 -0.1377,0.27576 -0.1929,0.36874 l -0.07,0.0978 -0.014,0.0144 0.029,0.0529 v -0.0593 l -0.029,0.006 0.029,0.0529 v -0.0593 0.0898 l 0.035,-0.0818 -0.035,-0.008 v 0.0898 l 0.035,-0.0818 -0.1435,0.0577 0.052,0.16032 0.057,0.0128 0.096,-0.0353 0.1044,-0.12184 c 0.058,-0.0898 0.1218,-0.20522 0.187,-0.33828 0.099,-0.1988 0.2045,-0.42967 0.2944,-0.62846 0.046,-0.0978 0.089,-0.19079 0.1233,-0.26133 l 0.078,-0.1507 c 0.2958,-0.4473 0.6134,-0.80802 0.9339,-1.16874 0.4959,-0.56113 0.9803,-1.15272 1.4748,-1.66575 0.8469,-0.87696 1.7271,-1.50702 2.6175,-2.11945 0.8904,-0.61563 1.7895,-1.21203 2.6639,-2.01845 0.1465,-0.13788 0.3234,-0.23888 0.4931,-0.42966 0.1552,-0.17475 0.2915,-0.43127 0.4191,-0.64289 0.1145,-0.19559 0.232,-0.39119 0.3437,-0.61243 0.075,-0.1491 0.1276,-0.31744 0.1885,-0.46654 0.067,-0.16833 0.1494,-0.32545 0.219,-0.52425 0.071,-0.20681 0.1261,-0.43287 0.1899,-0.63166 0.067,-0.20361 0.1276,-0.41684 0.1871,-0.62686 0.19,-0.66694 0.3422,-1.36434 0.4394,-2.13709 0.052,-0.42004 0.099,-0.84329 0.1436,-1.26654 0.075,-0.73107 0.1131,-1.50542 0.1131,-2.29901 0,-1.70743 -0.1711,-3.49662 -0.4815,-5.0806 -0.3103,-1.58398 -0.7584,-2.95954 -1.3283,-3.85413 -0.1755,-0.27415 -0.3553,-0.5499 -0.5569,-0.75832 l -0.093,-0.0705 -0.052,-0.0369 -0.062,-0.0769 -0.08,-0.0994 -0.093,-0.0705 -0.051,-0.0353 -0.1435,-0.17475 c -0.078,-0.085 -0.1596,-0.18277 -0.2437,-0.27896 -0.086,-0.0962 -0.174,-0.18918 -0.274,-0.25652 -0.235,-0.1587 -0.48,-0.4056 -0.7237,-0.67334 -0.245,-0.26613 -0.4901,-0.5515 -0.7337,-0.79519 -0.5076,-0.50822 -1.0065,-1.03728 -1.4865,-1.67055 -0.4553,-0.60281 -0.9251,-1.08699 -1.3703,-1.66735 -0.174,-0.22766 -0.4148,-0.5002 -0.6308,-0.83047 -0.2161,-0.33186 -0.4032,-0.71824 -0.4713,-1.17355 l -0.1247,-0.0994 -0.089,0.13627" /><path
           id="path6786"
           style="display:inline;fill:#aeacac;fill-opacity:1;fill-rule:nonzero;stroke:none;stroke-width:0.0152476"
           d="m 1065.5335,245.22032 c -0.026,0.26774 -0.022,0.50341 -0.048,0.75351 -0.02,0.18918 -0.026,0.36874 -0.026,0.54349 0,0.0898 10e-4,0.17636 0,0.26293 v 0.0737 c 10e-4,0.11222 0,0.23567 0,0.36072 0,0.11062 0,0.22125 0.023,0.32545 v 0.0657 0.16192 0.0786 0.002 0.0128 l 0.1087,-0.0128 -0.1087,0.002 0.01,0.0609 v 0.005 l 0.02,-0.003 h -0.022 l 10e-4,0.003 0.02,-0.003 h -0.022 l 0.1087,-0.002 h -0.1087 v 0.002 0.0754 0.0192 l 0.1073,-0.0176 -0.1088,0.003 0.01,0.0593 v 0.008 l 0.019,-0.005 h -0.02 l 10e-4,0.005 0.019,-0.005 h -0.02 0.1073 -0.1073 v 0.01 c 10e-4,0.0754 -0.016,0.17796 -0.035,0.28217 -0.035,0.2004 -0.1189,0.43928 -0.2407,0.69579 -0.3698,0.77115 -1.0818,1.693 -1.7692,2.26695 -0.1029,0.085 -0.2045,0.16994 -0.3074,0.2517 -0.1842,0.1491 -0.3655,0.26614 -0.5482,0.36393 l -0.1769,0.0946 -0.1784,0.093 -0.1595,0.0593 -0.1319,0.0545 -0.2045,0.0465 c -0.077,0.0176 -0.1595,0.0353 -0.2074,0.0353 v 0 h 10e-4 c -0.054,0 -0.1102,-0.0192 -0.1943,-0.0305 -0.3654,-0.0465 -0.6975,-0.14589 -1.0383,-0.24048 -0.3437,-0.0962 -0.6961,-0.18918 -1.0992,-0.21163 -0.1204,-0.008 -0.2408,-0.0112 -0.3611,-0.0112 -0.08,0 -0.1595,0 -0.2378,0 h -0.1146 -0.1117 c -0.1203,0 -0.245,0.003 -0.3799,0.0224 l -0.033,0.008 -0.1421,0.0577 c -0.09,0.0385 -0.2016,0.0866 -0.2973,0.12665 l -0.1247,0.0481 -0.039,0.0144 h -0.01 v 0 l 0.01,0.0561 v -0.0561 h -0.01 l 0.01,0.0561 v -0.0561 0.1026 l 0.038,-0.093 -0.038,-0.01 v 0.1026 l 0.038,-0.093 -0.043,0.10421 0.084,-0.0673 -0.041,-0.0369 -0.043,0.10421 0.084,-0.0673 -0.086,0.0673 h 0.1058 l -0.02,-0.0673 -0.086,0.0673 h 0.1059 -0.099 l 0.081,0.0609 0.017,-0.0609 h -0.099 l 0.081,0.0609 -0.052,-0.0401 0.045,0.0513 0.01,-0.0112 -0.052,-0.0401 0.045,0.0513 -0.01,-0.006 0.01,0.006 -0.01,-0.006 0.01,0.006 0.036,-0.0289 0.089,-0.0625 0.036,-0.16192 -0.1479,-0.0433 -0.1262,0.0914 -0.038,0.0353 -0.022,0.0273 -0.02,0.0705 0.02,0.0738 0.064,0.0465 0.035,0.005 0.039,-0.005 0.1595,-0.0545 c 0.093,-0.0353 0.206,-0.0866 0.3017,-0.12665 l 0.1232,-0.0529 0.039,-0.0144 0.01,-0.003 v 0 l -0.01,-0.0561 0.01,0.0561 v 0 l -0.01,-0.0561 0.01,0.0561 c 0.1219,-0.0176 0.2364,-0.0208 0.3524,-0.0208 h 0.1102 0.1161 c 0.08,0 0.158,0 0.2378,0 0.1189,0 0.2364,0.002 0.3495,0.008 0.3799,0.0241 0.7163,0.11062 1.0557,0.20681 0.3408,0.0946 0.683,0.1988 1.0702,0.2469 0.054,0.005 0.1218,0.0305 0.2146,0.0321 h 10e-4 v 0 c 0.087,0 0.174,-0.0241 0.248,-0.0385 0.07,-0.016 0.1406,-0.0305 0.2175,-0.0497 l 0.1523,-0.0609 0.1696,-0.0657 0.1842,-0.0946 0.1827,-0.0978 c 0.1929,-0.10581 0.3843,-0.22926 0.5786,-0.38477 0.1044,-0.0834 0.2089,-0.16995 0.3133,-0.25652 0.4771,-0.4008 0.9571,-0.95071 1.3399,-1.51023 0.19,-0.28056 0.3582,-0.56273 0.4873,-0.83528 0.129,-0.27094 0.2218,-0.52745 0.2639,-0.75832 0.019,-0.10902 0.038,-0.22124 0.038,-0.33026 v -0.0128 -0.002 l -0.01,-0.0577 -10e-4,-0.008 -0.023,0.005 h 0.023 v -0.005 l -0.023,0.005 h 0.023 v -0.016 l -0.099,0.016 0.099,-0.002 v -0.0144 l -0.099,0.016 0.099,-0.002 h -0.08 l 0.08,0.002 v -0.002 h -0.08 l 0.08,0.002 v -0.002 l 0.01,-0.0754 v -0.002 l -0.01,-0.0609 -10e-4,-0.006 -0.02,0.005 h 0.02 v -0.005 l -0.02,0.005 h 0.02 v -0.0112 l -0.091,0.01 h 0.091 v -0.01 l -0.091,0.01 h 0.091 l 0.01,-0.077 v -0.16353 l -0.01,-0.11703 c -0.014,-0.0738 -0.019,-0.16994 -0.019,-0.27415 0,-0.11543 0.01,-0.23888 0.01,-0.36072 l -10e-4,-0.0818 c 0,-0.0834 0,-0.16994 0,-0.25491 0,-0.16834 0.01,-0.33828 0.025,-0.51784 0.028,-0.26613 0.023,-0.50662 0.048,-0.75351 l -0.097,-0.13147 -0.1175,0.10582" /><path
           id="path6788"
           style="display:inline;fill:#aeacac;fill-opacity:1;fill-rule:nonzero;stroke:none;stroke-width:0.0152476"
           d="m 1063.5526,243.0191 c -0.01,0.0994 -0.057,0.21163 -0.1146,0.33668 -0.055,0.12184 -0.1204,0.25651 -0.1363,0.41523 -0.02,0.19239 -0.026,0.37355 -0.026,0.5483 0,0.0882 10e-4,0.17635 0,0.26133 v 0.0721 c 0,0.11222 0,0.23727 0,0.36072 0,0.11222 0,0.22124 0.023,0.32545 v 0.0673 0.16193 0.0769 0.002 0.0112 l 0.1073,-0.0112 -0.1073,0.003 0.01,0.0593 v 0.008 l 0.022,-0.006 -0.022,0.002 v 0.005 l 0.022,-0.006 -0.022,0.002 0.1073,-0.002 h -0.1073 v 0.002 0.0769 0.016 l 0.1073,-0.016 -0.1073,0.003 0.01,0.0593 10e-4,0.006 0.02,-0.003 h -0.02 v 0.003 l 0.02,-0.003 h -0.02 v 0.006 c 0,0.0802 -0.016,0.17956 -0.033,0.28537 -0.036,0.1988 -0.1204,0.43768 -0.2436,0.69419 -0.3698,0.76955 -1.0804,1.6914 -1.7678,2.26695 -0.1029,0.0866 -0.2059,0.17155 -0.3089,0.25331 -0.1841,0.1475 -0.3639,0.26293 -0.5481,0.36393 l -0.1755,0.093 -0.1783,0.0946 -0.1596,0.0593 -0.1319,0.0545 -0.2045,0.0465 c -0.077,0.016 -0.1595,0.0369 -0.2074,0.0353 v 0 0.11864 l 10e-4,-0.11864 c -0.054,0.002 -0.1087,-0.0208 -0.1928,-0.0337 -0.3669,-0.0433 -0.6976,-0.14108 -1.0398,-0.23888 -0.3422,-0.0946 -0.6961,-0.18918 -1.0992,-0.21322 -0.1189,-0.008 -0.2407,-0.01 -0.3611,-0.01 -0.08,0 -0.1581,0.002 -0.2378,0.002 l -0.1131,-0.002 h -0.1117 c -0.1204,0 -0.2465,0.005 -0.3814,0.024 l -0.049,0.0112 c -0.06,0.0176 -0.1508,0.0497 -0.2364,0.0769 l -0.1203,0.0369 -0.065,0.0128 v 0.0561 l 0.017,-0.0513 -0.017,-0.005 v 0.0561 l 0.017,-0.0513 -0.029,0.093 0.058,-0.077 -0.029,-0.016 -0.029,0.093 0.058,-0.077 -0.064,0.085 0.093,-0.0337 -0.029,-0.0513 -0.064,0.085 0.093,-0.0337 -0.1349,-0.0786 -0.07,0.1507 0.038,0.0609 0.055,0.0289 0.036,0.006 0.1334,-0.0256 c 0.071,-0.0192 0.1537,-0.0465 0.2263,-0.0721 l 0.093,-0.0305 0.048,-0.0144 c 0.1218,-0.0176 0.2363,-0.0192 0.3523,-0.0192 h 0.1102 l 0.1146,0.002 c 0.08,0 0.1595,-0.002 0.2378,-0.002 0.1189,0 0.2364,0.002 0.351,0.008 0.3785,0.0224 0.7149,0.11062 1.0557,0.20521 0.3408,0.0946 0.683,0.1988 1.0687,0.2469 0.054,0.005 0.1204,0.0305 0.2147,0.0321 h 10e-4 v 0 c 0.086,0 0.174,-0.0241 0.2465,-0.0369 0.068,-0.0144 0.1407,-0.0289 0.219,-0.0529 l 0.1508,-0.0593 0.1696,-0.0641 0.1842,-0.0962 0.1842,-0.0962 c 0.1914,-0.10582 0.3828,-0.22926 0.5786,-0.38638 0.1044,-0.0834 0.2088,-0.16834 0.3118,-0.25651 0.4771,-0.3992 0.9571,-0.9475 1.3414,-1.50863 0.1899,-0.28056 0.3582,-0.56433 0.4858,-0.83367 0.1305,-0.27095 0.2233,-0.52906 0.2639,-0.76153 0.019,-0.10742 0.038,-0.22124 0.038,-0.33187 v -0.01 l -0.01,-0.0625 v -0.006 l -0.02,0.006 h 0.02 v -0.006 l -0.02,0.006 h 0.02 v -0.016 l -0.093,0.016 h 0.093 v -0.016 l -0.093,0.016 h 0.093 l 0.01,-0.077 v -0.002 -0.002 l -0.01,-0.0593 -10e-4,-0.008 -0.022,0.003 h 0.022 v -0.003 l -0.022,0.003 h 0.022 v -0.01 l -0.093,0.01 h 0.093 v -0.01 l -0.093,0.01 h 0.093 -0.058 0.058 -0.058 0.058 v -0.0754 -0.16353 l -0.01,-0.11703 c -0.014,-0.0754 -0.02,-0.17155 -0.02,-0.27575 0,-0.11544 0.01,-0.23888 0.01,-0.36073 v -0.0802 c 0,-0.085 0,-0.16834 0,-0.25331 0,-0.16994 0.01,-0.34148 0.025,-0.51944 0.01,-0.0994 0.058,-0.21483 0.116,-0.33667 0.055,-0.12345 0.1189,-0.25812 0.1349,-0.41844 l -0.096,-0.12986 -0.1189,0.1042" /><path
           id="path6790"
           style="display:inline;fill:#aeacac;fill-opacity:1;fill-rule:nonzero;stroke:none;stroke-width:0.0152476"
           d="m 1060.2752,242.41629 -0.01,0.0769 v 0.005 l 10e-4,0.01 0.1088,-0.01 -0.1102,0.002 0.01,0.0593 10e-4,0.008 0.022,-0.005 -0.022,0.002 v 0.003 l 0.022,-0.005 -0.022,0.002 0.1087,-0.002 h -0.1087 v 0.002 0.0737 0.0144 l 0.1073,-0.0112 h -0.1073 l 0.01,0.0609 10e-4,0.006 0.019,-0.003 -0.02,0.002 10e-4,0.002 0.019,-0.003 -0.02,0.002 0.1087,-0.002 h -0.1087 v 0.006 c 0,0.0786 -0.014,0.17956 -0.033,0.28377 -0.035,0.2004 -0.1189,0.43928 -0.2422,0.6974 -0.3683,0.76954 -1.0803,1.68979 -1.7677,2.26695 -0.1029,0.0866 -0.2045,0.16994 -0.3089,0.25171 -0.1827,0.14749 -0.364,0.26293 -0.5481,0.36393 l -0.1755,0.093 -0.1784,0.0946 -0.1595,0.0593 -0.1319,0.0529 -0.2045,0.0465 c -0.077,0.0192 -0.1595,0.0385 -0.2074,0.0369 v 0 h 10e-4 c -0.054,0 -0.1087,-0.0208 -0.1929,-0.0321 -0.3654,-0.0433 -0.6975,-0.14269 -1.0397,-0.24048 -0.3423,-0.0962 -0.6946,-0.18918 -1.0992,-0.21323 -0.1189,-0.006 -0.2408,-0.01 -0.3626,-0.01 -0.08,0 -0.158,0.003 -0.2378,0.003 l -0.1117,-0.003 h -0.1122 c -0.1204,0 -0.2451,0.005 -0.38,0.0241 l -0.049,0.0112 c -0.061,0.0176 -0.1508,0.0497 -0.2363,0.0769 l -0.119,0.0369 -0.065,0.0128 v 0.0577 l 0.016,-0.0545 -0.016,-0.003 v 0.0577 l 0.016,-0.0545 -0.029,0.0946 0.057,-0.0754 -0.028,-0.0192 -0.029,0.0946 0.057,-0.0754 -0.062,0.0818 0.093,-0.0337 -0.03,-0.0481 -0.062,0.0818 0.093,-0.0337 -0.1348,-0.0754 -0.07,0.1507 0.036,0.0593 0.057,0.0289 0.038,0.005 0.1319,-0.0257 c 0.071,-0.0176 0.1538,-0.0465 0.2263,-0.0689 l 0.094,-0.0321 0.046,-0.0144 c 0.1219,-0.016 0.2364,-0.0192 0.351,-0.0192 h 0.1102 0.1146 c 0.08,0 0.1595,0 0.2378,0 0.1203,0 0.2393,0.002 0.3524,0.008 0.3785,0.0224 0.7163,0.11062 1.0557,0.20521 0.3408,0.0946 0.6815,0.1988 1.0702,0.24689 0.054,0.005 0.1203,0.0305 0.2146,0.0321 v 0 0 c 0.087,0 0.174,-0.0224 0.2465,-0.0369 0.071,-0.0144 0.1421,-0.0289 0.219,-0.0513 l 0.1508,-0.0593 h 10e-4 l 0.1697,-0.0657 0.1827,-0.0962 0.1827,-0.0978 c 0.1943,-0.10421 0.3843,-0.22765 0.5801,-0.38317 0.1044,-0.085 0.2088,-0.16994 0.3118,-0.25811 0.4771,-0.40081 0.9571,-0.94911 1.3399,-1.50863 0.1914,-0.28057 0.3582,-0.56273 0.4873,-0.83528 0.1305,-0.27094 0.2233,-0.52746 0.2639,-0.76153 0.019,-0.10741 0.039,-0.21964 0.039,-0.33026 v -0.01 -0.002 l -0.01,-0.0593 v -0.008 l -0.023,0.006 h 0.023 v -0.006 l -0.023,0.006 h 0.023 v -0.0128 l -0.086,0.0112 h 0.086 v -0.0112 l -0.086,0.0112 h 0.086 v -0.0738 -0.002 -0.005 l -0.01,-0.0593 -10e-4,-0.006 -0.022,0.003 h 0.022 v -0.003 l -0.022,0.003 h 0.022 v -0.008 l -0.091,0.008 h 0.091 v -0.008 l -0.091,0.008 h 0.091 -0.057 0.057 -0.057 0.057 v -0.002 -0.0754 l -0.1073,-0.12024 -0.1088,0.11864" /><path
           id="path6792"
           style="display:inline;fill:#aeacac;fill-opacity:1;fill-rule:nonzero;stroke:none;stroke-width:0.0152476"
           d="m 1068.7876,248.30812 c -0.071,0.31904 -0.1059,0.5996 -0.1755,0.90421 -0.08,0.34148 -0.1218,0.65572 -0.1522,0.95712 -0.013,0.12345 -0.038,0.26453 -0.06,0.40561 -0.02,0.14269 -0.039,0.28538 -0.039,0.41684 v 0.0721 0.0144 l -0.013,0.11383 -0.023,0.14589 -0.019,0.0994 v -0.002 0.0305 0.0369 0.006 0 h 0.01 -0.01 0.01 -0.01 v 0.003 l 0.1058,0.0128 -0.1058,-0.016 -0.01,0.0337 -0.013,0.0609 v 0.0289 0.0385 0.01 0 h 0.01 -0.01 v 0 h 0.01 -0.01 v 0 l 0.1073,0.0128 -0.1073,-0.016 c -0.01,0.0994 -0.048,0.22765 -0.087,0.36072 -0.1508,0.50181 -0.5699,1.21684 -1.105,1.93829 -0.5366,0.72465 -1.1877,1.45572 -1.8055,2.00402 -0.1363,0.12185 -0.2741,0.24369 -0.4118,0.36233 -0.248,0.21323 -0.4858,0.38798 -0.7251,0.54509 -0.077,0.0497 -0.1537,0.101 -0.2277,0.14589 -0.081,0.0465 -0.1609,0.10421 -0.2305,0.14429 -0.065,0.0385 -0.1291,0.0641 -0.2045,0.10421 l -0.1711,0.0914 c -0.087,0.0369 -0.1712,0.0673 -0.2567,0.0978 -0.096,0.0337 -0.203,0.0721 -0.2639,0.0818 l -0.065,0.005 -0.1378,-0.005 h -0.028 l -0.1668,0.005 c -0.6554,0 -1.2123,-0.15071 -1.8982,-0.15391 -0.1392,0 -0.2842,0.008 -0.4322,0.0241 -0.2813,0.0272 -0.5742,0.085 -0.8555,0.12505 -0.1842,0.0289 -0.3756,0.0577 -0.5917,0.12024 l -0.06,0.0256 c -0.075,0.0305 -0.1987,0.0914 -0.3103,0.14268 l -0.1523,0.0657 -0.054,0.0176 -0.014,0.003 v 0.002 0.0882 l 0.032,-0.0802 -0.032,-0.008 v 0.0882 l 0.032,-0.0802 -0.041,0.0994 0.074,-0.0722 -0.033,-0.0272 -0.041,0.0994 0.074,-0.0722 -0.075,0.0738 0.099,-0.0208 -0.023,-0.0529 -0.075,0.0738 0.099,-0.0208 -0.1247,-0.0946 -0.087,0.13948 0.026,0.0593 0.058,0.0417 0.039,0.003 0.078,-0.0112 c 0.086,-0.0273 0.2088,-0.085 0.3248,-0.13787 l 0.1566,-0.0754 0.087,-0.0369 c 0.2001,-0.0609 0.38,-0.0866 0.5641,-0.11543 0.2857,-0.0433 0.5786,-0.0994 0.8455,-0.12505 0.1421,-0.016 0.2813,-0.0208 0.4133,-0.0208 0.6554,-0.002 1.2108,0.1507 1.8982,0.1507 l 0.174,-0.003 v 0 h 0.019 l 0.1378,0.006 0.093,-0.008 c 0.1015,-0.0144 0.2088,-0.0609 0.3031,-0.0914 0.084,-0.0321 0.1725,-0.0609 0.2668,-0.1026 l 0.1871,-0.0978 c 0.064,-0.0353 0.1319,-0.0609 0.2117,-0.10902 0.081,-0.0481 0.161,-0.10421 0.2349,-0.14749 0.077,-0.0481 0.1566,-0.0994 0.2335,-0.15071 0.2465,-0.16032 0.4916,-0.33988 0.7483,-0.56272 0.1377,-0.11544 0.277,-0.24049 0.4147,-0.36073 0.6308,-0.56273 1.2907,-1.30341 1.8359,-2.03769 0.5438,-0.73748 0.9745,-1.46213 1.1427,-2.01684 0.039,-0.13467 0.08,-0.27415 0.097,-0.40401 v -0.003 -0.0256 -0.0401 -0.005 -0.003 h -0.019 l 0.019,0.003 v -0.003 h -0.019 l 0.019,0.003 0.01,-0.0337 0.01,-0.0609 v -0.0321 -0.0353 -0.008 0 h -0.019 l 0.019,0.003 v -0.003 h -0.019 l 0.019,0.003 v -0.002 l 0.017,-0.0914 0.023,-0.14109 0.014,-0.15711 v -0.0305 -0.002 -0.0545 c 0,-0.10741 0.017,-0.23887 0.036,-0.37675 0.022,-0.13948 0.046,-0.28217 0.061,-0.41844 0.031,-0.2966 0.071,-0.598 0.1465,-0.92666 0.075,-0.31904 0.1073,-0.60121 0.1769,-0.90261 l -0.08,-0.14429 -0.1305,0.085" /><path
           id="path6794"
           style="display:inline;fill:#aeacac;fill-opacity:1;fill-rule:nonzero;stroke:none;stroke-width:0.0152476"
           d="m 1072.3854,249.71253 c -0.3625,0.46333 -0.4756,0.9475 -0.567,1.21524 -0.1276,0.37836 -0.2059,0.71023 -0.3335,1.07736 -0.1407,0.40882 -0.2335,0.77917 -0.3118,1.13508 -0.036,0.15872 -0.091,0.3463 -0.1392,0.52906 -0.048,0.18598 -0.091,0.36233 -0.1001,0.52105 l -0.029,0.14268 -0.052,0.18918 -0.038,0.11704 -0.01,0.0705 v 0.0128 0.002 l -0.014,0.0417 -0.02,0.0705 -0.01,0.0721 v 0.0128 c -0.029,0.12024 -0.09,0.27896 -0.1566,0.44088 -0.2523,0.61724 -0.8483,1.52787 -1.5821,2.46094 -0.7338,0.93468 -1.6039,1.89981 -2.4116,2.64691 -0.1769,0.16513 -0.3553,0.32866 -0.5337,0.48898 -0.3233,0.29499 -0.6308,0.53868 -0.9353,0.76313 -0.097,0.0721 -0.1958,0.14429 -0.29,0.21002 -0.099,0.0689 -0.2016,0.1491 -0.293,0.21003 -0.084,0.0593 -0.1638,0.101 -0.2552,0.15551 -0.078,0.0513 -0.1566,0.10421 -0.219,0.14108 -0.1087,0.0561 -0.2117,0.10581 -0.3161,0.15551 -0.116,0.0561 -0.248,0.12345 -0.3292,0.1459 l -0.1276,0.0241 -0.145,0.0176 c -0.5163,0.0946 -0.9586,0.0978 -1.4168,0.10902 -0.4583,0.0128 -0.9325,0.0337 -1.498,0.17155 -0.3306,0.0818 -0.683,0.19719 -1.0195,0.29499 -0.2204,0.0641 -0.4481,0.13146 -0.7062,0.24048 l -0.071,0.0353 c -0.096,0.0545 -0.2523,0.14749 -0.3959,0.22766 l -0.1899,0.10421 -0.065,0.0289 -0.016,0.005 h -10e-4 l 0.01,0.0449 v -0.0449 h -0.01 l 0.01,0.0449 v -0.0449 0.10261 l 0.046,-0.0898 -0.046,-0.0128 v 0.10261 l 0.046,-0.0898 -0.051,0.0994 0.086,-0.0609 -0.035,-0.0385 -0.051,0.0994 0.086,-0.0609 -0.086,0.0593 0.1015,-0.006 -0.016,-0.0529 -0.086,0.0593 0.1015,-0.006 -0.1146,-0.11063 -0.1015,0.12506 0.017,0.0593 0.06,0.0529 0.042,0.008 0.051,-0.008 c 0.049,-0.016 0.1073,-0.0433 0.1798,-0.0818 0.1044,-0.0561 0.232,-0.12825 0.3437,-0.19558 l 0.1494,-0.0866 0.086,-0.0449 c 0.2465,-0.10421 0.464,-0.16834 0.6844,-0.23086 0.3408,-0.0994 0.6918,-0.21644 1.0122,-0.29339 0.5439,-0.13307 0.9992,-0.15391 1.456,-0.16674 0.4553,-0.0128 0.9121,-0.0144 1.4458,-0.11382 l 0.1305,-0.016 0.1624,-0.0289 c 0.1131,-0.0337 0.2451,-0.10261 0.3611,-0.15712 0.103,-0.0497 0.2088,-0.101 0.3248,-0.16353 0.078,-0.0417 0.1567,-0.0978 0.2306,-0.14268 0.083,-0.0513 0.1653,-0.0962 0.2625,-0.16353 0.097,-0.0657 0.2016,-0.14429 0.2944,-0.21002 0.097,-0.0673 0.1972,-0.14109 0.2944,-0.21323 0.3088,-0.22606 0.6235,-0.47936 0.9513,-0.77596 0.1798,-0.16192 0.3581,-0.32705 0.5365,-0.49379 0.8179,-0.75832 1.6952,-1.72827 2.4363,-2.67256 0.741,-0.9443 1.3443,-1.85653 1.614,-2.51865 0.067,-0.16353 0.1334,-0.32866 0.1696,-0.47937 l 0.01,-0.0721 v -0.0112 l 0.013,-0.0449 0.022,-0.0689 -0.1044,-0.0305 0.1044,0.0305 0.01,-0.0721 v -0.0128 l 0.035,-0.11223 0.052,-0.18276 0.038,-0.1988 c 0.01,-0.12024 0.043,-0.29018 0.091,-0.46814 0.048,-0.17956 0.1016,-0.36874 0.1422,-0.54028 0.077,-0.34951 0.1667,-0.70863 0.303,-1.10462 0.132,-0.38157 0.2103,-0.71504 0.3336,-1.08057 0.097,-0.28858 0.2001,-0.71984 0.5293,-1.14149 l -0.01,-0.16834 -0.1537,0.0112" /><path
           id="path6796"
           style="display:inline;fill:#aeacac;fill-opacity:1;fill-rule:nonzero;stroke:none;stroke-width:0.0152476"
           d="m 1074.8913,250.95182 c -0.2291,0.31744 -0.3596,0.65411 -0.4423,0.96353 -0.083,0.30942 -0.1204,0.58838 -0.161,0.79039 -0.1102,0.55952 -0.1566,1.06133 -0.2683,1.60642 -0.1247,0.60441 -0.1827,1.16073 -0.2233,1.69781 -0.017,0.21323 -0.052,0.45211 -0.08,0.69098 -0.032,0.23888 -0.058,0.48097 -0.058,0.6974 l 0.01,0.19399 v 0.0481 c 0,0.12345 -0.036,0.2982 -0.055,0.46333 l -0.028,0.17154 v 0.0305 0.0641 0.0289 0.01 l -0.013,0.0689 -0.016,0.0978 v 0.0305 l 0.01,0.0657 v 0.0289 0.006 l 0.1073,0.0128 -0.1073,-0.0128 c -0.017,0.18918 -0.077,0.42165 -0.1435,0.65732 -0.2495,0.90902 -0.9673,2.17236 -1.8925,3.4405 -0.9252,1.26655 -2.0592,2.5411 -3.141,3.49502 -0.2407,0.21162 -0.4786,0.41844 -0.7193,0.62365 -0.435,0.37034 -0.857,0.67175 -1.2776,0.93949 -0.1363,0.085 -0.2726,0.16993 -0.4031,0.24849 -0.1407,0.0834 -0.2813,0.17636 -0.409,0.2469 -0.1174,0.0689 -0.232,0.11382 -0.361,0.17795 -0.1102,0.0545 -0.219,0.11864 -0.3089,0.15552 -0.1566,0.0609 -0.3046,0.10902 -0.4568,0.16032 -0.1682,0.0545 -0.3582,0.12184 -0.4829,0.13467 l -0.091,0.005 c -0.1015,0 -0.2001,-0.016 -0.322,-0.016 h -0.01 l 10e-4,0.11864 -10e-4,-0.11864 h -0.046 c -0.6917,0 -1.3152,-0.0978 -1.9432,-0.19719 -0.6264,-0.0978 -1.263,-0.1972 -1.9736,-0.1972 -0.1639,0 -0.3306,0.005 -0.5047,0.0176 -0.493,0.0321 -1.0165,0.11543 -1.5183,0.17474 -0.3292,0.0401 -0.6656,0.0786 -1.0426,0.17957 l -0.096,0.0353 c -0.132,0.0529 -0.3437,0.15231 -0.5438,0.23888 -0.099,0.0417 -0.1944,0.0818 -0.2727,0.10902 l -0.1,0.0321 -0.052,0.01 v 0.0705 l 0.029,-0.0609 -0.025,-0.01 v 0.0705 l 0.029,-0.0609 -0.042,0.0882 0.07,-0.0641 -0.028,-0.0241 -0.042,0.0882 0.07,-0.0641 -0.072,0.0657 0.091,-0.0225 -0.019,-0.0433 -0.072,0.0657 0.091,-0.0225 -0.1291,-0.0898 -0.081,0.14429 0.029,0.0609 0.064,0.0417 0.046,0.006 0.1175,-0.0225 c 0.1435,-0.0401 0.3596,-0.13467 0.5612,-0.22445 0.1,-0.0433 0.1958,-0.085 0.2741,-0.12024 0.078,-0.0353 0.1421,-0.0593 0.1638,-0.0657 0.3597,-0.0946 0.6845,-0.13466 1.0137,-0.17314 0.5061,-0.0609 1.0267,-0.14429 1.5081,-0.17635 0.1683,-0.0112 0.3321,-0.0161 0.4916,-0.0161 0.6932,0 1.3153,0.0978 1.9432,0.1956 0.628,0.0994 1.2631,0.19879 1.9737,0.19879 l 0.048,-0.002 h 10e-4 v 0 c 0.1001,0 0.1987,0.0192 0.3219,0.0192 l 0.1131,-0.006 c 0.1639,-0.0192 0.3568,-0.0914 0.5221,-0.14589 0.1523,-0.0481 0.306,-0.0994 0.4684,-0.16353 0.1131,-0.0449 0.2233,-0.11223 0.3263,-0.16353 0.1174,-0.0577 0.2349,-0.10421 0.3698,-0.17956 0.1377,-0.0769 0.2798,-0.17475 0.4104,-0.2501 0.1348,-0.0818 0.274,-0.16834 0.4089,-0.25331 0.4292,-0.27094 0.8599,-0.57876 1.3037,-0.95872 0.2407,-0.20361 0.4814,-0.41363 0.7222,-0.62365 1.0963,-0.96674 2.239,-2.25092 3.1743,-3.53349 0.9339,-1.28097 1.6634,-2.55393 1.9316,-3.51906 0.065,-0.23888 0.1306,-0.48097 0.1523,-0.70382 v -0.0305 l -0.01,-0.0657 v -0.0289 -0.003 l 0.013,-0.0721 0.017,-0.0994 v -0.0321 -0.0641 -0.0289 -0.005 l 0.027,-0.16833 c 0.016,-0.1475 0.055,-0.32706 0.055,-0.49219 v -0.0738 l -0.01,-0.16834 c 0,-0.19719 0.026,-0.42806 0.055,-0.66373 0.029,-0.23727 0.064,-0.47776 0.081,-0.70221 0.042,-0.53387 0.099,-1.07576 0.2204,-1.66574 0.1146,-0.56433 0.1595,-1.06774 0.2683,-1.60803 0.043,-0.21643 0.078,-0.48737 0.1566,-0.77595 0.078,-0.28858 0.1972,-0.5964 0.4032,-0.88017 l -0.016,-0.16834 -0.1523,0.0176" /><path
           id="path6798"
           style="display:inline;fill:#aeacac;fill-opacity:1;fill-rule:nonzero;stroke:none;stroke-width:0.0152476"
           d="m 1078.289,258.09255 c -0.3509,0.27415 -0.6062,0.59158 -0.799,0.89139 -0.1958,0.29659 -0.3292,0.57876 -0.4438,0.77756 -0.3103,0.55471 -0.5307,1.06132 -0.8396,1.60001 -0.3408,0.59639 -0.5917,1.15431 -0.8208,1.6994 -0.1044,0.25011 -0.2451,0.52907 -0.3741,0.80482 -0.1291,0.27736 -0.2466,0.5483 -0.3031,0.79519 -0.013,0.0609 -0.049,0.1459 -0.094,0.23568 -0.043,0.093 -0.094,0.18758 -0.1378,0.28377 l -0.09,0.16994 -0.026,0.0962 -0.01,0.0401 v 0.002 l -0.038,0.0705 -0.051,0.0962 v 0 l -0.026,0.0978 -0.01,0.0385 c -0.084,0.19399 -0.2306,0.42164 -0.3828,0.65251 -0.293,0.44409 -0.744,0.95552 -1.2994,1.49259 -1.672,1.61444 -4.3026,3.46937 -6.559,4.59803 -0.3321,0.16994 -0.6627,0.33347 -0.9948,0.49379 -0.6018,0.28858 -1.1645,0.51143 -1.7155,0.6974 -0.1769,0.0609 -0.3553,0.12024 -0.5264,0.17315 -0.177,0.0529 -0.364,0.12344 -0.5279,0.16834 -0.1552,0.0449 -0.2944,0.0657 -0.4553,0.10581 -0.1378,0.0321 -0.2785,0.077 -0.3916,0.093 -0.1928,0.0337 -0.3712,0.0513 -0.5539,0.0689 -0.1682,0.0192 -0.3553,0.0417 -0.4974,0.0417 l -0.078,-0.003 c -0.081,-0.005 -0.1494,-0.0224 -0.2219,-0.0433 -0.071,-0.0192 -0.1465,-0.0433 -0.232,-0.0593 -0.8571,-0.16032 -1.5705,-0.43287 -2.3058,-0.6974 -0.7352,-0.26293 -1.4922,-0.51784 -2.429,-0.63648 -0.5481,-0.0689 -1.1456,-0.0946 -1.7126,-0.14108 -0.2755,-0.0209 -0.5554,-0.0449 -0.8628,-0.0449 -0.1074,0 -0.2161,0.005 -0.3292,0.01 -0.055,0.003 -0.1378,0.0192 -0.248,0.0385 -0.161,0.0321 -0.3712,0.0754 -0.567,0.11062 -0.097,0.0209 -0.19,0.0353 -0.2712,0.0481 -0.08,0.01 -0.1465,0.0176 -0.1885,0.016 h -0.026 l -0.01,-0.003 v 0.0273 l 0.01,-0.024 v -0.003 0.0273 l 0.01,-0.024 -0.026,0.0802 0.054,-0.0593 -0.027,-0.0209 -0.026,0.0802 0.054,-0.0593 -0.067,0.0738 h 0.094 l -0.028,-0.0738 -0.067,0.0738 h 0.094 -0.103 l 0.099,0.0273 v -0.0273 h -0.103 l 0.099,0.0273 -0.077,-0.14589 -0.1319,0.0866 v 0.032 l 0.013,0.0625 0.055,0.0577 0.064,0.0209 0.059,0.005 c 0.077,0 0.1813,-0.0144 0.306,-0.0337 0.1813,-0.0289 0.3973,-0.0738 0.5844,-0.11062 0.093,-0.0192 0.1784,-0.0369 0.248,-0.0481 l 0.1464,-0.024 c 0.1103,-0.005 0.2161,-0.006 0.3191,-0.006 0.2973,0 0.5713,0.0208 0.8469,0.0417 0.5713,0.0465 1.1673,0.0721 1.7024,0.14108 0.9165,0.11543 1.6561,0.36554 2.3884,0.62686 0.7324,0.26293 1.4589,0.54028 2.3348,0.70702 0.072,0.0112 0.1421,0.032 0.2175,0.0545 0.077,0.0209 0.1595,0.0417 0.2567,0.0497 l 0.096,0.003 c 0.1624,0 0.3524,-0.024 0.5177,-0.0417 0.1827,-0.0192 0.3654,-0.0368 0.5655,-0.0705 0.1335,-0.0209 0.2756,-0.0673 0.4061,-0.0994 0.1493,-0.0337 0.2929,-0.0561 0.464,-0.10422 0.1726,-0.0497 0.3611,-0.12024 0.5308,-0.17154 0.174,-0.0545 0.3538,-0.11383 0.5307,-0.17315 0.5583,-0.18918 1.1283,-0.41523 1.7402,-0.71022 0.3321,-0.15872 0.6656,-0.32385 0.9963,-0.49219 1.5212,-0.75992 3.199,-1.84209 4.6506,-2.96114 0.728,-0.55952 1.3965,-1.13027 1.9606,-1.67536 0.5656,-0.54349 1.0253,-1.06454 1.3341,-1.53268 0.1523,-0.23086 0.3031,-0.46653 0.4017,-0.68778 l 0.026,-0.0978 0.01,-0.0385 v 0.002 l 0.039,-0.0737 0.051,-0.0978 -0.099,-0.0497 0.097,0.0529 0.029,-0.0978 0.01,-0.0401 0.089,-0.16834 c 0.039,-0.085 0.09,-0.18116 0.1364,-0.27415 0.046,-0.0978 0.089,-0.19398 0.1116,-0.29339 0.048,-0.21002 0.1581,-0.47134 0.2857,-0.74389 0.1262,-0.27094 0.2683,-0.55311 0.3785,-0.81283 0.2277,-0.54189 0.4742,-1.09019 0.8077,-1.67376 0.3176,-0.55311 0.5366,-1.06133 0.8411,-1.60001 0.1189,-0.21002 0.2494,-0.48257 0.4336,-0.76634 0.1856,-0.28216 0.4234,-0.57715 0.7497,-0.83206 l 0.026,-0.16674 -0.1508,-0.0305" /><path
           id="path6800"
           style="display:inline;fill:#aeacac;fill-opacity:1;fill-rule:nonzero;stroke:none;stroke-width:0.0152476"
           d="m 1051.7135,241.96579 c 0.084,0.50662 0.3133,0.92826 0.5656,1.27776 0.2523,0.3495 0.5293,0.63007 0.7106,0.8449 0.5061,0.59639 1.0281,1.07736 1.5197,1.66574 0.5424,0.6493 1.1065,1.18638 1.6721,1.6946 0.261,0.23407 0.5307,0.51944 0.8062,0.79039 0.2756,0.27094 0.5569,0.52746 0.844,0.70541 0.083,0.0497 0.1711,0.12826 0.261,0.22125 0.089,0.0898 0.1799,0.19078 0.2756,0.28216 l 0.1609,0.17636 0.1016,0.0705 0.058,0.0369 0.158,0.17796 0.1015,0.0673 0.058,0.0385 c 0.2016,0.18598 0.3945,0.4489 0.5873,0.72145 0.6004,0.8465 1.0964,2.20122 1.4357,3.76596 0.3393,1.56474 0.5264,3.33789 0.5264,5.02608 0,0.78718 -0.041,1.55191 -0.1233,2.27016 -0.049,0.42324 -0.1015,0.84489 -0.1595,1.26173 -0.1044,0.75993 -0.2697,1.43969 -0.4771,2.09541 -0.067,0.21002 -0.1334,0.42164 -0.2045,0.61884 -0.075,0.21002 -0.1377,0.43607 -0.2102,0.62525 -0.067,0.17635 -0.1566,0.33026 -0.2379,0.51463 -0.071,0.15872 -0.129,0.32225 -0.1986,0.4457 -0.1189,0.21162 -0.2451,0.4008 -0.3727,0.59639 -0.1421,0.21804 -0.2929,0.46494 -0.4351,0.60923 -0.1566,0.15871 -0.3407,0.25491 -0.5307,0.41202 -0.9528,0.79359 -1.9389,1.38358 -2.9293,1.99921 -0.9905,0.61564 -1.9824,1.25532 -2.938,2.14671 -0.5598,0.52265 -1.1007,1.11744 -1.6445,1.67376 -0.3567,0.36232 -0.7178,0.73267 -1.0586,1.196 l -0.084,0.13627 c -0.1088,0.1988 -0.2712,0.53708 -0.4278,0.82726 -0.077,0.14429 -0.1523,0.27575 -0.2146,0.36874 l -0.077,0.0978 -0.019,0.016 v 0.005 -0.005 0 0.005 -0.005 l 0.022,0.0529 v -0.0577 l -0.022,0.005 0.022,0.0529 v -0.0577 0.0834 l 0.029,-0.0753 -0.029,-0.008 v 0.0834 l 0.029,-0.0753 -0.1421,0.0625 0.058,0.15711 0.055,0.0112 0.094,-0.0305 0.1145,-0.12185 c 0.064,-0.0882 0.1335,-0.20521 0.2089,-0.33827 0.1087,-0.19881 0.2247,-0.42967 0.3262,-0.62686 0.049,-0.0994 0.096,-0.18918 0.1349,-0.26453 l 0.088,-0.1475 c 0.3277,-0.4473 0.6801,-0.80802 1.0368,-1.17195 0.5482,-0.55952 1.0862,-1.15271 1.6372,-1.66414 0.9383,-0.87696 1.9171,-1.50863 2.9047,-2.12266 0.9876,-0.61243 1.9838,-1.20882 2.954,-2.01684 0.1638,-0.13788 0.3596,-0.23888 0.5452,-0.42806 0.1726,-0.17475 0.3248,-0.42967 0.4655,-0.6445 0.1276,-0.19399 0.2567,-0.38958 0.3799,-0.61082 0.084,-0.1491 0.1436,-0.31583 0.2089,-0.46494 0.075,-0.16833 0.1667,-0.32865 0.2436,-0.52746 0.08,-0.2052 0.1407,-0.43126 0.2117,-0.62846 0.072,-0.20521 0.1421,-0.41844 0.2088,-0.63006 0.2089,-0.66694 0.38,-1.36434 0.4858,-2.13869 0.059,-0.41844 0.1103,-0.84169 0.1596,-1.26494 0.086,-0.73267 0.1261,-1.50702 0.1261,-2.30222 0,-1.70903 -0.1885,-3.49822 -0.5336,-5.0822 -0.3452,-1.58558 -0.8426,-2.96434 -1.4748,-3.85734 -0.1944,-0.27415 -0.393,-0.5483 -0.6178,-0.75511 l -0.1001,-0.0705 -0.059,-0.0385 -0.158,-0.17635 -0.1015,-0.0689 -0.058,-0.0385 -0.1581,-0.17315 c -0.089,-0.085 -0.177,-0.18281 -0.2713,-0.27901 -0.097,-0.0962 -0.1943,-0.18757 -0.3016,-0.25491 -0.2639,-0.16192 -0.5336,-0.40722 -0.8063,-0.67495 -0.2726,-0.26614 -0.5438,-0.55311 -0.8135,-0.7952 -0.5627,-0.50661 -1.1195,-1.03728 -1.6503,-1.67215 -0.5032,-0.60442 -1.0267,-1.08538 -1.5197,-1.66575 -0.1915,-0.22765 -0.4612,-0.4986 -0.699,-0.83367 -0.2407,-0.32866 -0.4481,-0.71664 -0.5235,-1.16874 l -0.1262,-0.0962 -0.085,0.13787" /><path
           id="path6802"
           style="display:inline;fill:#aeacac;fill-opacity:1;fill-rule:nonzero;stroke:none;stroke-width:0.0152476"
           d="m 1055.3186,241.96579 c 0.084,0.50662 0.3147,0.92826 0.567,1.27776 0.2509,0.3495 0.5279,0.63007 0.7106,0.8449 0.5061,0.59639 1.0282,1.07736 1.5198,1.66574 0.5409,0.6493 1.1064,1.18638 1.6734,1.6946 0.2596,0.23407 0.5293,0.51944 0.8049,0.79039 0.2755,0.27094 0.5554,0.52746 0.8425,0.70541 0.084,0.0497 0.1726,0.12826 0.261,0.22125 0.091,0.0898 0.1827,0.19078 0.277,0.28216 l 0.161,0.17636 0.1015,0.0705 0.058,0.0369 0.158,0.17796 0.1016,0.0673 0.058,0.0385 c 0.2015,0.18598 0.3944,0.4489 0.5873,0.72145 0.6003,0.8465 1.0948,2.20122 1.4342,3.76596 0.3407,1.56474 0.5278,3.33789 0.5278,5.02608 0,0.78718 -0.041,1.55191 -0.1232,2.27016 -0.051,0.42324 -0.1016,0.84489 -0.1596,1.26173 -0.1044,0.75993 -0.2711,1.43969 -0.4771,2.09541 -0.067,0.21002 -0.1334,0.42164 -0.2059,0.61884 -0.074,0.21002 -0.1363,0.43607 -0.2088,0.62525 -0.068,0.17635 -0.1552,0.33026 -0.2378,0.51463 -0.071,0.15872 -0.1305,0.32225 -0.2001,0.4457 -0.1175,0.21162 -0.2437,0.4008 -0.3727,0.59639 -0.1407,0.21804 -0.293,0.46494 -0.4336,0.60923 -0.1566,0.15871 -0.3408,0.25491 -0.5308,0.41202 -0.9527,0.79359 -1.9403,1.38358 -2.9307,1.99921 -0.989,0.61564 -1.9809,1.25532 -2.938,2.14671 -0.5598,0.52265 -1.0993,1.11744 -1.6431,1.67376 -0.3567,0.36232 -0.7178,0.73267 -1.0586,1.196 l -0.083,0.13627 c -0.1088,0.1988 -0.2727,0.53708 -0.4293,0.82726 -0.077,0.14429 -0.1522,0.27575 -0.2146,0.36874 l -0.077,0.0978 -0.017,0.016 v 0.005 -0.005 0.005 -0.005 l 0.022,0.0529 v -0.0577 l -0.022,0.005 0.022,0.0529 v -0.0577 0.0834 l 0.029,-0.0753 -0.029,-0.008 v 0.0834 l 0.029,-0.0753 -0.1421,0.0625 0.058,0.15711 0.055,0.0112 0.094,-0.0321 0.1145,-0.12024 c 0.064,-0.0882 0.1334,-0.20521 0.2074,-0.33828 0.1088,-0.1988 0.2262,-0.42966 0.3263,-0.62685 0.052,-0.0994 0.097,-0.18918 0.1363,-0.26454 l 0.089,-0.14749 c 0.3277,-0.4473 0.6801,-0.80802 1.0354,-1.17195 0.5496,-0.55952 1.0876,-1.15271 1.6372,-1.66414 0.9397,-0.87696 1.9185,-1.50863 2.9061,-2.12266 0.9875,-0.61243 1.9838,-1.20882 2.9539,-2.01684 0.1639,-0.13788 0.3597,-0.23888 0.5467,-0.42806 0.1712,-0.17476 0.3234,-0.42967 0.4626,-0.6445 0.1291,-0.19399 0.2582,-0.38958 0.3814,-0.61082 0.084,-0.14911 0.1421,-0.31584 0.2089,-0.46494 0.075,-0.16833 0.1667,-0.32866 0.2436,-0.52746 0.08,-0.20521 0.1406,-0.43126 0.2117,-0.62846 0.074,-0.20521 0.1407,-0.41844 0.2088,-0.63006 0.2088,-0.66694 0.38,-1.36434 0.4858,-2.13869 0.058,-0.41844 0.1102,-0.84169 0.1595,-1.26494 0.086,-0.73267 0.1262,-1.50703 0.1262,-2.30222 0,-1.70903 -0.19,-3.49822 -0.5322,-5.0822 -0.3451,-1.58558 -0.844,-2.96435 -1.4763,-3.85734 -0.1928,-0.27415 -0.3944,-0.5483 -0.6177,-0.75511 l -0.1015,-0.0705 -0.058,-0.0385 -0.1595,-0.17636 h 10e-4 l -0.1016,-0.0689 -0.058,-0.0385 -0.158,-0.17315 c -0.087,-0.085 -0.1784,-0.18277 -0.2727,-0.27896 -0.094,-0.0962 -0.1928,-0.18758 -0.3016,-0.25491 -0.261,-0.16193 -0.5336,-0.40722 -0.8048,-0.67496 -0.2726,-0.26613 -0.5438,-0.55311 -0.8135,-0.79519 -0.5627,-0.50662 -1.1196,-1.03728 -1.6489,-1.67216 -0.5061,-0.60441 -1.0281,-1.08538 -1.5212,-1.66574 -0.1928,-0.22766 -0.4611,-0.4986 -0.7004,-0.83367 -0.2393,-0.32866 -0.4466,-0.71664 -0.5221,-1.16875 l -0.1261,-0.0962 -0.087,0.13788" /><path
           id="path6804"
           style="display:inline;fill:#aeacac;fill-opacity:1;fill-rule:nonzero;stroke:none;stroke-width:0.0152476"
           d="m 1059.3587,241.96579 c 0.083,0.50662 0.3147,0.92826 0.5656,1.27776 0.2509,0.3495 0.5278,0.63007 0.7106,0.8449 0.5061,0.59639 1.0281,1.07736 1.5197,1.66574 0.5409,0.6493 1.1065,1.18638 1.672,1.6946 0.2611,0.23407 0.5308,0.51944 0.8063,0.79039 0.2756,0.27094 0.5554,0.52746 0.844,0.70541 0.083,0.0497 0.1711,0.12826 0.2596,0.22125 0.09,0.0898 0.1827,0.19078 0.277,0.28216 l 0.1624,0.17636 0.1,0.0705 0.058,0.0369 0.1596,0.17796 0.1,0.0673 0.058,0.0385 c 0.2016,0.18598 0.3959,0.4489 0.5873,0.72145 0.6004,0.8465 1.0949,2.20122 1.4342,3.76596 0.3408,1.56474 0.5279,3.33789 0.5279,5.02608 0,0.78718 -0.041,1.55191 -0.1247,2.27016 -0.049,0.42324 -0.1001,0.84489 -0.1581,1.26173 -0.1044,0.75993 -0.2712,1.43969 -0.4771,2.09541 -0.067,0.21002 -0.1334,0.42164 -0.2045,0.61884 -0.075,0.21002 -0.1363,0.43607 -0.2088,0.62525 -0.068,0.17635 -0.1566,0.33026 -0.2393,0.51463 -0.071,0.15872 -0.1305,0.32225 -0.2001,0.4457 -0.1174,0.21162 -0.2436,0.4008 -0.3712,0.59639 -0.1421,0.21804 -0.2929,0.46494 -0.4351,0.60923 -0.1566,0.15871 -0.3422,0.25491 -0.5307,0.41202 -0.9528,0.79359 -1.9403,1.38358 -2.9293,1.99921 -0.989,0.61564 -1.9824,1.25532 -2.9395,2.14671 -0.5583,0.52265 -1.0992,1.11744 -1.643,1.67376 -0.3553,0.36232 -0.7178,0.73267 -1.0586,1.196 l -0.084,0.13627 c -0.1073,0.1988 -0.2726,0.53708 -0.4278,0.82726 -0.077,0.14429 -0.1523,0.27575 -0.2146,0.36874 l -0.077,0.0978 -0.019,0.016 v 0.005 l -10e-4,-0.005 v 0 0.005 l -10e-4,-0.005 0.02,0.0529 v -0.0577 l -0.02,0.005 0.02,0.0529 v -0.0577 0.0834 l 0.029,-0.0753 -0.029,-0.008 v 0.0834 l 0.029,-0.0753 -0.1421,0.0625 0.058,0.15711 0.055,0.0112 0.093,-0.0305 0.116,-0.12185 c 0.064,-0.0882 0.1348,-0.20521 0.2073,-0.33827 0.1103,-0.19881 0.2277,-0.42967 0.3278,-0.62686 0.049,-0.0994 0.096,-0.18918 0.1363,-0.26453 l 0.086,-0.1475 c 0.3306,-0.4473 0.6816,-0.80802 1.0383,-1.17195 0.5496,-0.55952 1.0862,-1.15271 1.6372,-1.66414 0.9397,-0.87696 1.9157,-1.50863 2.9047,-2.12266 0.9861,-0.61243 1.9838,-1.20882 2.9539,-2.01684 0.1639,-0.13788 0.3597,-0.23888 0.5453,-0.42806 0.1711,-0.17475 0.3248,-0.42967 0.4655,-0.6445 0.1276,-0.19399 0.2567,-0.38958 0.3799,-0.61082 0.084,-0.1491 0.1436,-0.31583 0.2103,-0.46494 0.074,-0.16833 0.1653,-0.32865 0.2436,-0.52746 0.078,-0.2052 0.1392,-0.43126 0.2103,-0.62846 0.074,-0.20521 0.1407,-0.41844 0.2088,-0.63006 0.2103,-0.66694 0.38,-1.36434 0.4858,-2.13869 0.058,-0.41844 0.1102,-0.84169 0.1595,-1.26494 0.086,-0.73267 0.1262,-1.50702 0.1262,-2.30222 0,-1.70903 -0.1885,-3.49822 -0.5322,-5.0822 -0.3451,-1.58558 -0.844,-2.96434 -1.4763,-3.85734 -0.1928,-0.27415 -0.393,-0.5483 -0.6177,-0.75511 l -0.1015,-0.0705 -0.058,-0.0385 -0.1581,-0.17635 -0.1001,-0.0689 -0.06,-0.0385 -0.1595,-0.17315 c -0.086,-0.085 -0.1769,-0.18281 -0.2712,-0.27901 -0.094,-0.0962 -0.1928,-0.18757 -0.3016,-0.25491 -0.261,-0.16192 -0.5337,-0.40722 -0.8048,-0.67495 -0.2712,-0.26614 -0.5438,-0.55311 -0.8136,-0.7952 -0.5626,-0.50661 -1.1195,-1.03728 -1.6488,-1.67215 -0.5046,-0.60442 -1.0281,-1.08538 -1.5212,-1.66575 -0.1929,-0.22765 -0.4611,-0.4986 -0.7004,-0.83367 -0.2393,-0.32866 -0.4467,-0.71664 -0.5221,-1.16874 l -0.1261,-0.0962 -0.086,0.13787" /><path
           id="path6806"
           style="display:inline;fill:#aeacac;fill-opacity:1;fill-rule:nonzero;stroke:none;stroke-width:0.0152476"
           d="m 1063.5555,243.06399 c 0.1319,0.51784 0.48,0.93788 0.8585,1.28578 0.3813,0.3463 0.7975,0.62526 1.0774,0.84329 0.7613,0.5932 1.5531,1.07576 2.3,1.66414 0.8193,0.64931 1.672,1.18478 2.5276,1.6914 0.7946,0.47134 1.6372,1.14469 2.4884,1.48939 0.2683,0.10901 0.5424,0.33186 0.8237,0.51303 0.072,0.0433 0.1494,0.11543 0.2451,0.17635 l 0.1392,0.0609 0.1015,0.0449 c 0.068,0.0417 0.1436,0.11543 0.2407,0.17636 l 0.1378,0.0625 0.1015,0.0449 c 0.3118,0.18918 0.6062,0.45371 0.8962,0.72466 0.9136,0.8513 1.659,2.20282 2.1723,3.76275 0.5134,1.55993 0.7976,3.32827 0.7976,5.01325 0,0.78398 -0.062,1.54711 -0.1885,2.26375 -0.074,0.42164 -0.1523,0.84168 -0.2393,1.25852 -0.1581,0.75512 -0.4089,1.43328 -0.7207,2.08739 -0.1001,0.21162 -0.203,0.42004 -0.3103,0.62044 -0.1146,0.21002 -0.206,0.43608 -0.3176,0.62205 -0.1015,0.17956 -0.2349,0.33026 -0.3597,0.51303 -0.1073,0.16193 -0.1957,0.32385 -0.3016,0.4473 -0.1784,0.21162 -0.3712,0.4024 -0.5641,0.59639 -0.2146,0.21804 -0.4437,0.46654 -0.6642,0.61243 -0.245,0.16674 -0.5293,0.26453 -0.8063,0.41684 -2.8974,1.59199 -5.9963,2.36474 -8.885,4.14431 -0.8455,0.52265 -1.6633,1.11744 -2.4885,1.67056 -0.5409,0.36392 -1.0847,0.73267 -1.5995,1.19279 l -0.1247,0.13627 c -0.1653,0.1972 -0.4133,0.53708 -0.6482,0.82726 -0.1175,0.14429 -0.2306,0.27576 -0.3263,0.36874 l -0.1204,0.10421 -0.039,0.0209 -0.01,0.003 v 0 0.0112 -0.0112 0 0.0112 -0.0112 0.0401 l 0.01,-0.0369 -0.01,-0.003 v 0.0401 l 0.01,-0.0369 -0.1348,0.0818 0.077,0.1475 0.048,0.008 0.096,-0.0257 0.1624,-0.11222 c 0.096,-0.085 0.2015,-0.20201 0.3132,-0.33507 0.1653,-0.20041 0.3422,-0.43127 0.4945,-0.63007 0.077,-0.0994 0.145,-0.18918 0.2045,-0.25972 l 0.1348,-0.1507 c 0.5003,-0.4489 1.0369,-0.81283 1.5749,-1.17516 0.8295,-0.55792 1.6445,-1.15271 2.4798,-1.66735 2.8553,-1.75712 5.9499,-2.53147 8.8778,-4.1411 0.2567,-0.13948 0.5481,-0.24048 0.8222,-0.42325 0.2523,-0.17154 0.4873,-0.42806 0.6975,-0.63968 0.1944,-0.1972 0.3901,-0.39119 0.5787,-0.60923 0.1261,-0.1507 0.216,-0.32224 0.3146,-0.46814 0.1131,-0.16834 0.2524,-0.32545 0.3698,-0.52585 0.1218,-0.20842 0.2146,-0.43608 0.3191,-0.63167 0.1131,-0.20521 0.216,-0.41844 0.3175,-0.63006 0.3176,-0.66855 0.5772,-1.36755 0.7396,-2.14511 0.089,-0.42004 0.1668,-0.84329 0.2407,-1.26814 0.1291,-0.73267 0.1915,-1.51344 0.1915,-2.30863 0,-1.71384 -0.2857,-3.50784 -0.8092,-5.09663 -0.5235,-1.58558 -1.2805,-2.96915 -2.2362,-3.86054 -0.2929,-0.27415 -0.596,-0.5483 -0.9295,-0.75191 l -0.1392,-0.0641 -0.1015,-0.0433 c -0.067,-0.0417 -0.1436,-0.11543 -0.2408,-0.17635 l -0.1392,-0.0641 -0.1015,-0.0449 c -0.07,-0.0417 -0.1464,-0.11383 -0.2407,-0.17315 -0.2668,-0.16994 -0.5467,-0.4008 -0.857,-0.52746 -0.8107,-0.32866 -1.6503,-0.99399 -2.4609,-1.47496 -0.8542,-0.50661 -1.6982,-1.03888 -2.5045,-1.67536 -0.7613,-0.5996 -1.5516,-1.08377 -2.3013,-1.66734 -0.2901,-0.22445 -0.699,-0.4986 -1.063,-0.83207 -0.3654,-0.33187 -0.6787,-0.72305 -0.7889,-1.16394 l -0.1334,-0.0834 -0.075,0.14589" /><path
           id="path6808"
           style="display:inline;fill:#aeacac;fill-opacity:1;fill-rule:nonzero;stroke:none;stroke-width:0.0152476"
           d="m 1061.3831,242.38583 c 0.1306,0.51624 0.4786,0.93628 0.8585,1.28257 0.38,0.34951 0.7962,0.62686 1.0746,0.8433 0.7642,0.59479 1.556,1.07576 2.3028,1.66734 0.8179,0.6461 1.6706,1.18318 2.5276,1.6914 0.7947,0.46974 1.6358,1.14149 2.4885,1.48939 0.2683,0.10581 0.5409,0.32866 0.8237,0.50982 0.071,0.0449 0.1493,0.11703 0.2436,0.17796 l 0.1392,0.0625 0.1015,0.0433 c 0.07,0.0401 0.1436,0.11703 0.2408,0.17635 l 0.1392,0.0625 0.1015,0.0449 c 0.3103,0.18918 0.6047,0.45371 0.8962,0.72465 0.9136,0.85131 1.6589,2.20122 2.1709,3.76275 0.5133,1.55833 0.7975,3.32668 0.7975,5.01326 0,0.78237 -0.061,1.5471 -0.1885,2.26214 -0.074,0.42325 -0.1523,0.84329 -0.2393,1.26013 -0.1566,0.75191 -0.4075,1.43488 -0.7207,2.08738 -0.1,0.21163 -0.2016,0.42005 -0.3103,0.61885 -0.1131,0.21162 -0.2059,0.43607 -0.3161,0.62365 -0.1016,0.17635 -0.235,0.33026 -0.3611,0.51303 -0.1073,0.16192 -0.1958,0.32224 -0.3002,0.44569 -0.1784,0.21002 -0.3713,0.40401 -0.5641,0.5996 -0.2161,0.21804 -0.4438,0.46333 -0.6656,0.61243 -0.2437,0.16353 -0.5279,0.26293 -0.8063,0.41363 -2.896,1.5936 -5.9964,2.36795 -8.8866,4.14752 -0.8439,0.51784 -1.6618,1.11424 -2.487,1.67056 -0.5394,0.36232 -1.0832,0.72946 -1.598,1.19279 l -0.1262,0.13467 c -0.1639,0.19719 -0.4118,0.53707 -0.6482,0.82726 -0.116,0.14429 -0.2306,0.27736 -0.3248,0.36713 l -0.1218,0.10261 -0.039,0.024 -0.01,0.002 v 0.002 0.0128 -0.0128 0 0.0128 -0.0128 0.0385 l 0.01,-0.0369 -0.01,-0.002 v 0.0385 l 0.01,-0.0369 -0.1335,0.085 0.075,0.14589 0.048,0.006 0.097,-0.024 0.161,-0.11222 c 0.096,-0.085 0.203,-0.20361 0.3132,-0.33668 0.1668,-0.19719 0.3437,-0.42806 0.4945,-0.62846 0.077,-0.0978 0.1465,-0.18918 0.206,-0.26132 l 0.1334,-0.15231 c 0.5003,-0.4473 1.0368,-0.80962 1.5763,-1.17195 0.8295,-0.55952 1.6445,-1.15271 2.4797,-1.66734 2.8539,-1.75873 5.9486,-2.53149 8.8764,-4.13951 0.2567,-0.14269 0.5482,-0.24208 0.8222,-0.42485 0.2538,-0.17315 0.4873,-0.42646 0.699,-0.63968 0.1929,-0.19399 0.3887,-0.38959 0.5772,-0.61243 0.1247,-0.14911 0.2161,-0.31904 0.3161,-0.46494 0.1131,-0.16834 0.2509,-0.32545 0.3684,-0.52906 0.1218,-0.20681 0.2146,-0.43126 0.3204,-0.62846 0.1117,-0.20682 0.2147,-0.42004 0.3162,-0.63006 0.319,-0.66854 0.5786,-1.36915 0.7395,-2.14511 0.089,-0.42164 0.1668,-0.84489 0.2422,-1.26814 0.1291,-0.73427 0.1914,-1.51183 0.1914,-2.30863 0,-1.71544 -0.2871,-3.50784 -0.8091,-5.09663 -0.525,-1.58718 -1.282,-2.97076 -2.2362,-3.86215 -0.2929,-0.27254 -0.596,-0.54509 -0.9295,-0.75191 l -0.1392,-0.0625 -0.103,-0.0449 c -0.068,-0.0417 -0.1436,-0.11383 -0.2393,-0.17475 l -0.1392,-0.0641 -0.1015,-0.0433 c -0.071,-0.0433 -0.1479,-0.11543 -0.2407,-0.17475 -0.2683,-0.16834 -0.5482,-0.4008 -0.8585,-0.52906 -0.8106,-0.32706 -1.6488,-0.994 -2.4595,-1.47496 -0.8541,-0.50501 -1.6995,-1.03728 -2.5044,-1.67536 -0.7613,-0.60121 -1.5531,-1.08378 -2.3043,-1.66735 -0.2871,-0.22445 -0.6975,-0.4986 -1.0615,-0.83046 -0.3654,-0.33347 -0.6786,-0.72466 -0.7874,-1.16554 l -0.1349,-0.0834 -0.074,0.1491" /><path
           id="path6810"
           style="display:inline;fill:#aeacac;fill-opacity:1;fill-rule:nonzero;stroke:none;stroke-width:0.0152476"
           d="m 1060.078,242.38583 c 0.132,0.51784 0.48,0.93628 0.8599,1.28257 0.38,0.34951 0.7947,0.62686 1.0746,0.8433 0.7628,0.59479 1.5546,1.07576 2.3014,1.66734 0.8179,0.6461 1.6706,1.18318 2.5276,1.6914 0.7947,0.46974 1.6372,1.14149 2.4885,1.48939 0.2682,0.10581 0.5423,0.32866 0.8236,0.50982 0.071,0.0449 0.148,0.11703 0.2451,0.17796 l 0.1378,0.0625 0.1029,0.0433 c 0.068,0.0401 0.1436,0.11703 0.2393,0.17635 l 0.1392,0.0625 0.1015,0.0449 c 0.3118,0.18918 0.6048,0.45371 0.8962,0.72465 0.9136,0.85131 1.659,2.20122 2.1724,3.76275 0.5119,1.55833 0.7961,3.32668 0.7961,5.01326 0,0.78237 -0.061,1.5471 -0.1871,2.26214 -0.075,0.42325 -0.1537,0.84329 -0.2407,1.26013 -0.1566,0.75191 -0.4075,1.43488 -0.7193,2.08738 -0.1015,0.21163 -0.203,0.42005 -0.3103,0.61885 -0.1146,0.21162 -0.2059,0.43607 -0.3176,0.62365 -0.1015,0.17635 -0.2349,0.33026 -0.3596,0.51303 -0.1088,0.16192 -0.1958,0.32224 -0.3017,0.44569 -0.1798,0.21002 -0.3712,0.40401 -0.5641,0.5996 -0.2146,0.21804 -0.4437,0.46333 -0.6656,0.61243 -0.2436,0.16353 -0.5278,0.26293 -0.8063,0.41363 -2.8959,1.5936 -5.9963,2.36795 -8.8865,4.14752 -0.844,0.51784 -1.6604,1.11424 -2.487,1.67056 -0.5394,0.36232 -1.0847,0.72946 -1.5981,1.19279 l -0.1247,0.13467 c -0.1653,0.19719 -0.4133,0.53707 -0.6482,0.82726 -0.1175,0.14429 -0.2306,0.27736 -0.3263,0.36713 l -0.1218,0.10261 -0.038,0.024 -0.01,0.002 -10e-4,0.002 10e-4,0.0128 v -0.0128 h -10e-4 l 10e-4,0.0128 v -0.0128 0.0385 l 0.01,-0.0369 -0.01,-0.002 v 0.0385 l 0.01,-0.0369 -0.1348,0.085 0.075,0.14589 0.049,0.006 0.096,-0.024 0.1609,-0.11222 c 0.096,-0.085 0.2016,-0.20361 0.3133,-0.33668 0.1667,-0.19719 0.3436,-0.42806 0.4959,-0.62846 0.075,-0.0978 0.145,-0.18918 0.2045,-0.26132 l 0.1348,-0.15231 c 0.5003,-0.4473 1.0354,-0.80962 1.5749,-1.17195 0.8295,-0.55952 1.6445,-1.15271 2.4798,-1.66734 2.8539,-1.75873 5.9485,-2.53149 8.8778,-4.13951 0.2567,-0.14269 0.5467,-0.24208 0.8222,-0.42485 0.2523,-0.17315 0.4858,-0.42646 0.6975,-0.63968 0.1944,-0.19399 0.3887,-0.38959 0.5757,-0.61243 0.1262,-0.14911 0.219,-0.31904 0.3176,-0.46494 0.1131,-0.16834 0.2509,-0.32545 0.3698,-0.52906 0.1204,-0.20681 0.2132,-0.43126 0.319,-0.62846 0.1117,-0.20682 0.2147,-0.42004 0.3162,-0.63006 0.319,-0.66854 0.5786,-1.36915 0.741,-2.14511 0.087,-0.42164 0.1653,-0.84489 0.2407,-1.26814 0.1305,-0.73427 0.1915,-1.51183 0.1915,-2.30863 0,-1.71544 -0.2857,-3.50784 -0.8092,-5.09663 -0.5235,-1.58718 -1.282,-2.97076 -2.2362,-3.86215 -0.2929,-0.27254 -0.596,-0.54509 -0.9295,-0.75191 l -0.1392,-0.0625 -0.1015,-0.0449 c -0.068,-0.0417 -0.1436,-0.11383 -0.2408,-0.17475 l -0.1392,-0.0641 -0.1015,-0.0433 c -0.071,-0.0433 -0.1464,-0.11543 -0.2422,-0.17475 -0.2668,-0.16834 -0.5467,-0.4008 -0.8555,-0.52906 -0.8121,-0.32706 -1.6503,-0.994 -2.4624,-1.47496 -0.8527,-0.50501 -1.6967,-1.03728 -2.503,-1.67536 -0.7613,-0.60121 -1.5531,-1.08378 -2.3028,-1.66735 -0.2886,-0.22445 -0.6975,-0.4986 -1.063,-0.83046 -0.3639,-0.33347 -0.6786,-0.72466 -0.7874,-1.16554 l -0.1349,-0.0834 -0.074,0.1491" /></g></g></g></svg>
